<?xml version="1.0" encoding="iso-8859-1"?>
<!-- Generator: Adobe Illustrator 19.0.0, SVG Export Plug-In . SVG Version: 6.00 Build 0)  -->
<svg version="1.1" id="Capa_1" xmlns="http://www.w3.org/2000/svg" xmlns:xlink="http://www.w3.org/1999/xlink" x="0px" y="0px"
	 viewBox="0 0 512 512" style="enable-background:new 0 0 512 512;" xml:space="preserve">
<path style="fill:#4398D1;" d="M256,512L256,512C125.458,441.291,44.138,304.755,44.138,156.292V61.793h31.779
	C141.144,61.793,204.509,40.051,256,0l0,0c51.491,40.051,114.856,61.793,180.083,61.793h31.779v94.455
	C467.88,304.728,386.56,441.282,256,512z"/>
<path style="fill:#3E8CC7;" d="M436.083,61.793h-0.653C375.534,271.492,199.336,334.689,95.823,353.713
	C133.138,420.59,188.69,475.48,256,512c130.542-70.709,211.862-207.245,211.862-355.708V61.793H436.083z"/>
<path style="fill:#E6E6E6;" d="M208.022,94.199L208.022,94.199c-9.11-3.911-18.909-5.923-28.822-5.923l0,0
	c-40.466,0-73.269,32.803-73.269,73.269l0,0c0,21.495,5.005,42.699,14.618,61.926l20.692,41.357l22.537,120.223
	c2.286,12.191,12.932,21.018,25.335,21.018l0,0c13.003,0.009,23.985-9.666,25.6-22.572l11.546-92.389
	c1.88-14.998,14.627-26.262,29.74-26.28l0,0c15.13,0.009,27.886,11.273,29.767,26.28l11.546,92.389
	c1.615,12.897,12.579,22.572,25.574,22.572l0,0c12.403,0,23.049-8.828,25.335-21.018l22.537-120.223l20.692-41.384
	c9.613-19.218,14.618-40.413,14.618-61.899l0,0c0-40.466-32.803-73.269-73.269-73.269l0,0c-9.922,0-19.73,2.013-28.849,5.923l0,0
	C273.32,107.317,238.654,107.317,208.022,94.199z"/>
<path style="fill:#F2F2F2;" d="M150.069,185.379h-17.655v-12.314c-0.026-22.837,11.396-44.173,30.411-56.823l9.799,14.689
	c-14.106,9.375-22.572,25.194-22.554,42.134V185.379z"/>
<g>
	<path style="fill:#DEDEDE;" d="M163.787,385.05c2.613,13.992,16.075,23.208,30.067,20.595
		c11.026-2.057,19.456-11.017,20.833-22.148l8.651-69.323c-21.539,12.376-43.776,23.499-66.604,33.306L163.787,385.05z"/>
	<path style="fill:#DEDEDE;" d="M279.905,276.789c3.178,4.175,5.199,9.11,5.862,14.318l11.546,92.389
		c1.757,14.124,14.627,24.143,28.751,22.387c11.132-1.386,20.092-9.807,22.148-20.833l22.546-120.223l20.692-41.384
		c9.613-19.218,14.618-40.413,14.618-61.899l0,0c0.009-9.366-1.792-18.635-5.297-27.321
		C372.003,190.42,330.637,239.219,279.905,276.789z"/>
</g>
<g>
	<rect x="247.172" y="52.966" style="fill:#3570AB;" width="17.655" height="17.655"/>
	<rect x="423.724" y="88.276" style="fill:#3570AB;" width="17.655" height="17.655"/>
	<rect x="70.621" y="88.276" style="fill:#3570AB;" width="17.655" height="17.655"/>
	<rect x="388.414" y="317.793" style="fill:#3570AB;" width="17.655" height="17.655"/>
	<rect x="79.448" y="211.862" style="fill:#3570AB;" width="17.655" height="17.655"/>
	<rect x="247.172" y="450.207" style="fill:#3570AB;" width="17.655" height="17.655"/>
	<rect x="414.897" y="211.862" style="fill:#3570AB;" width="17.655" height="17.655"/>
	<rect x="105.931" y="317.793" style="fill:#3570AB;" width="17.655" height="17.655"/>
</g>
<g>
</g>
<g>
</g>
<g>
</g>
<g>
</g>
<g>
</g>
<g>
</g>
<g>
</g>
<g>
</g>
<g>
</g>
<g>
</g>
<g>
</g>
<g>
</g>
<g>
</g>
<g>
</g>
<g>
</g>
</svg>
