<?xml version="1.0" encoding="iso-8859-1"?>
<!-- Generator: Adobe Illustrator 19.0.0, SVG Export Plug-In . SVG Version: 6.00 Build 0)  -->
<svg version="1.1" id="Capa_1" xmlns="http://www.w3.org/2000/svg" xmlns:xlink="http://www.w3.org/1999/xlink" x="0px" y="0px"
	 viewBox="0 0 480 480" style="enable-background:new 0 0 480 480;" xml:space="preserve">
<path style="fill:#F0F0F0;" d="M72,247.849c-6.144,0-11.752,2.32-16,6.128c-4.248-3.808-9.856-6.128-16-6.128
	c-13.232,0-24,10.768-24,24v104c0,4.424,3.584,8,8,8h64c4.416,0,8-3.576,8-8v-104C96,258.617,85.232,247.849,72,247.849z"/>
<path style="fill:#F5F5F5;" d="M136,247.849c-6.144,0-11.752,2.32-16,6.128c-4.248-3.808-9.856-6.128-16-6.128
	c-13.232,0-24,10.768-24,24v104c0,4.424,3.584,8,8,8h64c4.416,0,8-3.576,8-8v-104C160,258.617,149.232,247.849,136,247.849z"/>
<g>
	<path style="fill:#F0F0F0;" d="M120,351.849c-4.416,0-8-3.576-8-8v-72c0-4.424,3.584-8,8-8s8,3.576,8,8v72
		C128,348.273,124.416,351.849,120,351.849z"/>
	<path style="fill:#F0F0F0;" d="M200,247.849c-6.144,0-11.752,2.32-16,6.128c-4.248-3.808-9.856-6.128-16-6.128
		c-13.232,0-24,10.768-24,24v104c0,4.424,3.584,8,8,8h64c4.416,0,8-3.576,8-8v-104C224,258.617,213.232,247.849,200,247.849z"/>
</g>
<g>
	<path style="fill:#F5F5F5;" d="M184,351.849c-4.416,0-8-3.576-8-8v-72c0-4.424,3.584-8,8-8s8,3.576,8,8v72
		C192,348.273,188.416,351.849,184,351.849z"/>
	<path style="fill:#F5F5F5;" d="M264,247.849c-6.144,0-11.752,2.32-16,6.128c-4.248-3.808-9.856-6.128-16-6.128
		c-13.232,0-24,10.768-24,24v104c0,4.424,3.584,8,8,8h64c4.424,0,8-3.576,8-8v-104C288,258.617,277.232,247.849,264,247.849z"/>
</g>
<path style="fill:#F0F0F0;" d="M248,351.849c-4.416,0-8-3.576-8-8v-72c0-4.424,3.584-8,8-8c4.424,0,8,3.576,8,8v72
	C256,348.273,252.424,351.849,248,351.849z"/>
<path style="fill:#E65039;" d="M472,399.849H324.944l-9.368-18.736c-4.088-8.176-12.32-13.264-21.464-13.264H24
	c-13.232,0-24,10.768-24,24v48c0,22.056,17.944,40,40,40h432c4.424,0,8-3.576,8-8v-64C480,403.425,476.424,399.849,472,399.849z"/>
<path style="fill:#85D9E9;" d="M144,151.849H48c-22.056,0-40,17.944-40,40v64c0,4.424,3.584,8,8,8h96c4.416,0,8-3.576,8-8v-64
	c0-13.232,10.768-24,24-24c4.416,0,8-3.576,8-8S148.416,151.849,144,151.849z"/>
<path style="fill:#D6F2F8;" d="M240,151.849h-96c-22.056,0-40,17.944-40,40v64c0,4.424,3.584,8,8,8h96c4.416,0,8-3.576,8-8v-64
	c0-13.232,10.768-24,24-24c4.416,0,8-3.576,8-8S244.416,151.849,240,151.849z"/>
<g>
	<path style="fill:#992817;" d="M56,479.849c-4.416,0-8-3.576-8-8v-32c0-4.424,3.584-8,8-8s8,3.576,8,8v32
		C64,476.273,60.416,479.849,56,479.849z"/>
	<path style="fill:#992817;" d="M120,479.849c-4.416,0-8-3.576-8-8v-32c0-4.424,3.584-8,8-8s8,3.576,8,8v32
		C128,476.273,124.416,479.849,120,479.849z"/>
	<path style="fill:#992817;" d="M184,479.849c-4.416,0-8-3.576-8-8v-32c0-4.424,3.584-8,8-8s8,3.576,8,8v32
		C192,476.273,188.416,479.849,184,479.849z"/>
	<path style="fill:#992817;" d="M248,479.849c-4.416,0-8-3.576-8-8v-32c0-4.424,3.584-8,8-8c4.424,0,8,3.576,8,8v32
		C256,476.273,252.424,479.849,248,479.849z"/>
</g>
<path style="fill:#EB7361;" d="M380,295.849c-15.44,0-28-12.56-28-28s12.56-28,28-28s28,12.56,28,28S395.44,295.849,380,295.849z
	 M380,255.849c-6.616,0-12,5.384-12,12s5.384,12,12,12s12-5.384,12-12S386.616,255.849,380,255.849z"/>
<g>
	<path style="fill:#85D9E9;" d="M307.064,128.457c-2.984-1.248-6.432-0.56-8.72,1.736l-21.656,21.656H240c-22.056,0-40,17.944-40,40
		v64c0,4.424,3.584,8,8,8h64c22.056,0,40-17.944,40-40v-88C312,132.617,310.056,129.689,307.064,128.457z"/>
	<path style="fill:#85D9E9;" d="M208,63.849h-8v-8c0-4.424-3.584-8-8-8s-8,3.576-8,8v8h-8c-4.416,0-8,3.576-8,8s3.584,8,8,8h8v8
		c0,4.424,3.584,8,8,8s8-3.576,8-8v-8h8c4.416,0,8-3.576,8-8S212.416,63.849,208,63.849z"/>
</g>
<path style="fill:#FDC567;" d="M400,95.849c-2.92,0-5.616-1.592-7.016-4.168l-13.024-23.8l-23.8-13.024
	c-2.568-1.392-4.16-4.088-4.16-7.008s1.592-5.616,4.168-7.016l23.8-13.024l13.024-23.8c2.8-5.144,11.232-5.144,14.032,0l13.024,23.8
	l23.8,13.024c2.56,1.4,4.152,4.096,4.152,7.016s-1.592,5.616-4.168,7.016l-23.8,13.024l-13.024,23.8
	C405.616,94.257,402.92,95.849,400,95.849z M376.672,47.849l13.024,7.128c1.344,0.736,2.448,1.832,3.176,3.176L400,71.177
	l7.128-13.024c0.736-1.344,1.832-2.448,3.176-3.176l13.024-7.128l-13.024-7.128c-1.344-0.736-2.448-1.832-3.176-3.176L400,24.521
	l-7.128,13.024c-0.736,1.344-1.832,2.448-3.176,3.176L376.672,47.849z"/>
<path style="fill:#F5F5F5;" d="M56,351.849c-4.416,0-8-3.576-8-8v-72c0-4.424,3.584-8,8-8s8,3.576,8,8v72
	C64,348.273,60.416,351.849,56,351.849z"/>
<g>
</g>
<g>
</g>
<g>
</g>
<g>
</g>
<g>
</g>
<g>
</g>
<g>
</g>
<g>
</g>
<g>
</g>
<g>
</g>
<g>
</g>
<g>
</g>
<g>
</g>
<g>
</g>
<g>
</g>
</svg>
