<?xml version="1.0" encoding="iso-8859-1"?>
<!-- Generator: Adobe Illustrator 19.0.0, SVG Export Plug-In . SVG Version: 6.00 Build 0)  -->
<svg version="1.1" id="Capa_1" xmlns="http://www.w3.org/2000/svg" xmlns:xlink="http://www.w3.org/1999/xlink" x="0px" y="0px"
	 viewBox="0 0 480 480" style="enable-background:new 0 0 480 480;" xml:space="preserve">
<g>
	<path style="fill:#85D9E9;" d="M255.996,160h-32c-4.424,0-8,3.576-8,8v56c0,4.424,3.576,8,8,8h32c4.424,0,8-3.576,8-8v-56
		C263.996,163.576,260.42,160,255.996,160z"/>
	<path style="fill:#85D9E9;" d="M255.996,424h-32c-4.424,0-8,3.576-8,8v24c0,13.232,10.768,24,24,24s24-10.768,24-24v-24
		C263.996,427.576,260.42,424,255.996,424z"/>
</g>
<g>
	<rect x="215.996" y="128" style="fill:#D6F2F8;" width="48" height="48"/>
	<path style="fill:#D6F2F8;" d="M263.996,216h-48c-4.424,0-8,3.576-8,8v208c0,4.424,3.576,8,8,8h48c4.424,0,8-3.576,8-8V224
		C271.996,219.576,268.42,216,263.996,216z"/>
</g>
<g>
	<rect x="207.996" y="280" style="fill:#85D9E9;" width="64" height="96"/>
	<circle style="fill:#85D9E9;" cx="239.996" cy="72" r="72"/>
</g>
<circle style="fill:#FAFAFA;" cx="239.996" cy="72" r="48"/>
<path style="fill:#D6F2F8;" d="M407.996,160h-32c-4.424,0-8,3.576-8,8v56c0,4.424,3.576,8,8,8h32c4.424,0,8-3.576,8-8v-56
	C415.996,163.576,412.42,160,407.996,160z"/>
<g>
	<path style="fill:#85D9E9;" d="M415.996,216h-48c-4.424,0-8,3.576-8,8v208c0,4.424,3.576,8,8,8h48c4.424,0,8-3.576,8-8V224
		C423.996,219.576,420.42,216,415.996,216z"/>
	<path style="fill:#85D9E9;" d="M407.996,424h-32c-4.424,0-8,3.576-8,8v24c0,13.232,10.768,24,24,24s24-10.768,24-24v-24
		C415.996,427.576,412.42,424,407.996,424z"/>
</g>
<g>
	<path style="fill:#D6F2F8;" d="M391.996,280c-1.04,0-2.08-0.24-3.04-0.64c-1.04-0.4-1.84-0.96-2.64-1.76
		c-1.52-1.44-2.32-3.44-2.32-5.6c0-2.08,0.872-4.168,2.32-5.68c2.96-2.96,8.4-2.96,11.36,0c1.44,1.512,2.32,3.6,2.32,5.68
		c0,1.04-0.24,2.08-0.64,3.04s-0.96,1.832-1.68,2.56c-0.808,0.8-1.68,1.36-2.64,1.76S393.036,280,391.996,280z"/>
	<path style="fill:#D6F2F8;" d="M391.996,328c-1.04,0-2.08-0.24-3.04-0.64c-1.04-0.4-1.84-0.96-2.64-1.76
		c-0.72-0.728-1.28-1.6-1.768-2.56c-0.392-0.96-0.552-2-0.552-3.04c0-2.08,0.872-4.168,2.32-5.68c1.832-1.84,4.64-2.72,7.192-2.168
		c0.56,0.088,1.04,0.24,1.52,0.488c0.48,0.16,0.96,0.4,1.36,0.72c0.48,0.24,0.88,0.64,1.28,0.96c1.448,1.512,2.328,3.6,2.328,5.68
		c0,1.04-0.24,2.08-0.64,3.04s-0.96,1.832-1.68,2.56C396.156,327.192,394.156,328,391.996,328z"/>
</g>
<path style="fill:#85D9E9;" d="M446.004,13.544C438.404,4.936,427.468,0,415.996,0h-16c-22.088,0-40,17.912-40,40v32
	c0,16.36,9.896,30.416,24,36.608V128h-8c-4.416,0-8,3.584-8,8v40h48v-40c0-4.416-3.584-8-8-8h-8v-16c4.424,0,8-3.576,8-8
	s-3.576-8-8-8c-13.232,0-24-10.768-24-24V40c0-13.256,10.744-24,24-24h15.144c6.992,0,14.224,2.336,18.576,7.8
	c2.896,3.632,8.16,4.072,11.584,1.048C448.612,21.92,448.924,16.856,446.004,13.544z"/>
<path style="fill:#D6F2F8;" d="M423.996,392h-64v40c0,4.416,3.584,8,8,8h48c4.416,0,8-3.584,8-8V392z"/>
<g>
	<path style="fill:#85D9E9;" d="M103.996,368h-32c-4.424,0-8,3.576-8,8v96c0,4.424,3.576,8,8,8h32c4.424,0,8-3.576,8-8v-96
		C111.996,371.576,108.42,368,103.996,368z"/>
	<path style="fill:#85D9E9;" d="M87.996,96c-4.424,0-8-3.576-8-8V43.84l-37-29.592C39.548,11.488,38.988,6.456,41.748,3
		c2.768-3.432,7.792-4.016,11.248-1.248l40,32c1.896,1.52,3,3.816,3,6.248v48C95.996,92.424,92.42,96,87.996,96z"/>
</g>
<path style="fill:#D6F2F8;" d="M111.756,118.064l-8-32C102.86,82.496,99.668,80,95.996,80h-16c-3.672,0-6.864,2.496-7.76,6.064
	l-8,32c-0.6,2.392-0.064,4.92,1.456,6.856c1.512,1.944,3.84,3.08,6.304,3.08h32c2.464,0,4.792-1.136,6.304-3.08
	C111.82,122.984,112.356,120.456,111.756,118.064z"/>
<path style="fill:#85D9E9;" d="M111.996,112h-48c-4.424,0-8,3.576-8,8v256c0,4.424,3.576,8,8,8h48c4.424,0,8-3.576,8-8V120
	C119.996,115.576,116.42,112,111.996,112z"/>
<g>
	<path style="fill:#D6F2F8;" d="M135.996,384h-96c-4.424,0-8-3.576-8-8s3.576-8,8-8h96c4.424,0,8,3.576,8,8S140.42,384,135.996,384z
		"/>
	<path style="fill:#D6F2F8;" d="M119.996,480h-64c-4.424,0-8-3.576-8-8s3.576-8,8-8h64c4.424,0,8,3.576,8,8S124.42,480,119.996,480z
		"/>
	<path style="fill:#D6F2F8;" d="M79.996,224h-16c-4.424,0-8-3.576-8-8s3.576-8,8-8h16c4.424,0,8,3.576,8,8S84.42,224,79.996,224z"/>
	<path style="fill:#D6F2F8;" d="M79.996,272h-16c-4.424,0-8-3.576-8-8s3.576-8,8-8h16c4.424,0,8,3.576,8,8S84.42,272,79.996,272z"/>
	<path style="fill:#D6F2F8;" d="M79.996,320h-16c-4.424,0-8-3.576-8-8s3.576-8,8-8h16c4.424,0,8,3.576,8,8S84.42,320,79.996,320z"/>
	<path style="fill:#D6F2F8;" d="M79.996,176h-16c-4.424,0-8-3.576-8-8s3.576-8,8-8h16c4.424,0,8,3.576,8,8S84.42,176,79.996,176z"/>
</g>
<g>
</g>
<g>
</g>
<g>
</g>
<g>
</g>
<g>
</g>
<g>
</g>
<g>
</g>
<g>
</g>
<g>
</g>
<g>
</g>
<g>
</g>
<g>
</g>
<g>
</g>
<g>
</g>
<g>
</g>
</svg>
