<?xml version="1.0" encoding="iso-8859-1"?>
<!-- Generator: Adobe Illustrator 19.0.0, SVG Export Plug-In . SVG Version: 6.00 Build 0)  -->
<svg  width="51px" height="51px" version="1.1" id="Capa_1" xmlns="http://www.w3.org/2000/svg" xmlns:xlink="http://www.w3.org/1999/xlink" x="0px" y="0px"
	 viewBox="0 0 481.464 481.464" style="enable-background:new 0 0 481.464 481.464;" xml:space="preserve">
<path style="fill:#F0F0F0;" d="M427.328,33.104c-15.24-9.024-45.136-8.648-66.848-8.376c-3.24,0.04-6.256,0.08-8.944,0.08
	c-24.816,0-45.024,6.08-63.384,18.984c-2.048,1.344-4.008,2.808-6.488,4.672l-0.904,0.68c-0.32,0.24-0.632,0.488-0.944,0.736
	c-2.736-2.192-5.448-4.168-8.152-5.944c-18.56-13.048-38.768-19.128-63.584-19.128c-2.688,0-5.704-0.04-8.944-0.08
	c-21.784-0.232-51.616-0.64-66.448,8.144c-27.8,14.28-44.56,39.992-51.232,78.592l7.888,1.368l0,0l46.464,229.896l-7.856,1.52
	c6.456,33.392,12.36,62.896,16.488,83.232c2.784,13.728,13.008,24.48,26.328,27.952c3.032,0.936,5.856,1.4,8.624,1.4
	c0.416,0,0.768,0,1,0h33.928c0.464,0,0.72,0,0.944,0c2.536,0,5.168-0.4,7.752-1.136c12.56-3.08,22.68-12.608,26.536-25.344
	l21.888-91.104c1.536-4.848,5.672-5.576,7.376-5.664c2.992-0.192,7.168,1.312,9.408,5.872l21.984,91.352
	c3.728,12.272,13.848,21.808,26.136,24.808c2.856,0.816,5.488,1.216,8.016,1.216c0.32,0.008,0.704,0.008,0.936,0h33.928
	c0.416,0,0.744,0,1,0c2.768,0,5.592-0.464,8.28-1.296c13.664-3.568,23.88-14.328,26.672-28.056
	c6.288-31.016,18.496-92.128,29.976-154.792c20.784-29.752,36.312-80.04,36.312-117.944
	C481.472,91.592,463.632,51.72,427.328,33.104z"/>
<g>
	<path style="fill:#FCFCFC;" d="M247.808,144.832c-4.416,0-8-3.576-8-8c0-60.728,51.168-112.024,111.728-112.024
		c4.424,0,8,3.576,8,8s-3.576,8-8,8c-57.256,0-95.728,49.648-95.728,96.024C255.808,141.256,252.232,144.832,247.808,144.832z"/>
	<path style="fill:#FCFCFC;" d="M247.808,192.832c-4.416,0-8-3.576-8-8v-16c0-4.424,3.584-8,8-8c4.424,0,8,3.576,8,8v16
		C255.808,189.256,252.232,192.832,247.808,192.832z"/>
</g>
<path style="fill:#85D9E9;" d="M216.152,120.104c-0.392-8.544-7.432-15.272-15.984-15.272H23.448
	c-8.552,0-15.592,6.728-15.984,15.272L0.016,284.048c-0.248,5.504,2.344,10.744,6.88,13.88l91.256,63.176
	c4.08,2.832,8.864,4.24,13.656,4.24c4.784,0,9.576-1.416,13.664-4.24l91.256-63.176c4.528-3.136,7.128-8.376,6.88-13.88
	L216.152,120.104z"/>
<path style="fill:#FAFAFA;" d="M111.808,144.832c-44.112,0-80,35.888-80,80s35.888,80,80,80s80-35.888,80-80
	S155.92,144.832,111.808,144.832z"/>
<g>
	<path style="fill:#85D9E9;" d="M435.64,137.816l-23.8-13.024l-13.024-23.8c-2.8-5.144-11.232-5.144-14.032,0l-13.024,23.8
		l-23.8,13.024c-2.56,1.4-4.152,4.096-4.152,7.016s1.592,5.616,4.168,7.016l23.8,13.024l13.024,23.8
		c1.392,2.568,4.088,4.16,7.008,4.16s5.616-1.592,7.016-4.168l13.024-23.8l23.8-13.024c2.568-1.392,4.16-4.088,4.16-7.008
		S438.216,139.216,435.64,137.816z"/>
	<path style="fill:#85D9E9;" d="M151.808,200.832h-16v-16c0-4.424-3.584-8-8-8h-32c-4.416,0-8,3.576-8,8v16h-16
		c-4.416,0-8,3.576-8,8v32c0,4.424,3.584,8,8,8h16v16c0,4.424,3.584,8,8,8h32c4.416,0,8-3.576,8-8v-16h16c4.416,0,8-3.576,8-8v-32
		C159.808,204.408,156.224,200.832,151.808,200.832z"/>
</g>
<g>
</g>
<g>
</g>
<g>
</g>
<g>
</g>
<g>
</g>
<g>
</g>
<g>
</g>
<g>
</g>
<g>
</g>
<g>
</g>
<g>
</g>
<g>
</g>
<g>
</g>
<g>
</g>
<g>
</g>
</svg>
