<?xml version="1.0" encoding="iso-8859-1"?>
<!-- Generator: Adobe Illustrator 19.0.0, SVG Export Plug-In . SVG Version: 6.00 Build 0)  -->
<svg version="1.1" id="Capa_1" xmlns="http://www.w3.org/2000/svg" xmlns:xlink="http://www.w3.org/1999/xlink" x="0px" y="0px"
	 viewBox="0 0 480.206 480.206" style="enable-background:new 0 0 480.206 480.206;" xml:space="preserve">
<path style="fill:#F0F0F0;" d="M404.167,9.318c-16.784-9.912-49.904-9.504-74.08-9.2c-3.616,0.048-6.984,0.088-9.984,0.088
	c-27.472,0-49.84,6.72-70.184,21.016c-2.264,1.488-4.432,3.104-7.152,5.144l-1.056,0.792c-0.536,0.416-1.072,0.84-1.6,1.272
	c-3.224-2.624-6.424-4.968-9.616-7.064c-20.552-14.44-42.92-21.16-70.392-21.16c-3,0-6.368-0.04-9.992-0.088
	c-24.2-0.312-57.304-0.712-73.664,8.968C35.839,29.95,16.103,74.142,16.103,144.206c0,42.184,17.32,98.16,40.448,131.184
	c12.888,70.312,26.48,138.352,33.472,172.816c3.032,14.968,14.176,26.68,28.744,30.496c3.16,0.968,6.368,1.328,9.52,1.456
	c0.32,0.024,0.696,0.048,0.928,0.048h37.84c0.464,0,0.8,0,1.048,0c2.744,0,5.6-0.432,8.432-1.24
	c13.688-3.344,24.72-13.736,28.88-27.44l26.944-103.824c1.448-5.56,6.296-5.992,7.744-5.992c1.448,0,6.304,0.44,7.744,5.992
	l27.032,104.152c4.064,13.376,15.104,23.784,28.504,27.056c2.96,0.84,5.68,1.296,8.864,1.296h0.008c0.312,0,0.672,0,0.896,0h37.84
	c0.224,0,0.448-0.008,0.592-0.016c0.192,0.008,0.376,0.016,0.52,0.016c2.984,0,6.032-0.496,9.008-1.416
	c14.896-3.896,26.032-15.616,29.072-30.584c6.992-34.464,20.584-102.496,33.472-172.816c23.128-33.024,40.448-89,40.448-131.184
	C464.103,74.142,444.367,29.95,404.167,9.318z"/>
<g>
	<path style="fill:#FCFCFC;" d="M200.103,144.206c-4.416,0-8-3.584-8-8c0-77.528,55.024-136,128-136c4.416,0,8,3.584,8,8
		s-3.584,8-8,8c-63.848,0-112,51.592-112,120C208.103,140.622,204.519,144.206,200.103,144.206z"/>
	<path style="fill:#FCFCFC;" d="M200.103,216.206c-4.416,0-8-3.584-8-8v-24c0-4.416,3.584-8,8-8s8,3.584,8,8v24
		C208.103,212.622,204.519,216.206,200.103,216.206z"/>
</g>
<path style="fill:#85D9E9;" d="M411.943,129.19l-23.808-13.016l-13.016-23.808c-2.808-5.128-11.232-5.128-14.04,0l-13.016,23.808
	l-23.808,13.016c-2.552,1.4-4.152,4.088-4.152,7.016s1.6,5.616,4.16,7.016l23.808,13.016l13.016,23.808
	c1.4,2.56,4.088,4.16,7.016,4.16s5.616-1.6,7.016-4.16l13.016-23.808l23.808-13.016c2.56-1.4,4.16-4.088,4.16-7.016
	S414.503,130.59,411.943,129.19z"/>
<g>
</g>
<g>
</g>
<g>
</g>
<g>
</g>
<g>
</g>
<g>
</g>
<g>
</g>
<g>
</g>
<g>
</g>
<g>
</g>
<g>
</g>
<g>
</g>
<g>
</g>
<g>
</g>
<g>
</g>
</svg>
