<?xml version="1.0" encoding="iso-8859-1"?>
<!-- Generator: Adobe Illustrator 19.0.0, SVG Export Plug-In . SVG Version: 6.00 Build 0)  -->
<svg version="1.1" id="Capa_1" xmlns="http://www.w3.org/2000/svg" xmlns:xlink="http://www.w3.org/1999/xlink" x="0px" y="0px"
	 viewBox="0 0 486.808 486.808" style="enable-background:new 0 0 486.808 486.808;" xml:space="preserve">
<path style="fill:#F5B9B0;" d="M473.084,358.808H307.348c-22.4-13.776-56.736-35.024-60.984-38.016
	c-1.264-1.112-2.88-1.832-4.672-1.96c-4.2-0.272-7.88,2.632-8.512,6.776l-11.728,76.944c-1.864,11.744-11.832,20.256-23.712,20.256
	h-34.424c-11.4,0-21.296-8.12-23.536-19.296l-16.28-81.416c-2.232-11.176-12.128-19.288-23.536-19.288h-5.76
	c-11.4,0-21.304,8.112-23.536,19.288L53.1,409.936c-1.496,7.456-8.096,12.872-15.688,12.872H9.084c-4.416,0-8,3.576-8,8v48
	c0,4.424,3.584,8,8,8h464c4.416,0,8-3.576,8-8v-112C481.084,362.384,477.5,358.808,473.084,358.808z"/>
<path style="fill:#F0F0F0;" d="M244.396,14.952c-15.312-8.872-44.952-8.496-66.64-8.24c-3.24,0.04-6.256,0.08-8.944,0.08
	c-24.808,0-45.016,6.08-63.376,18.984c-2.016,1.32-3.952,2.768-6.408,4.608l-0.992,0.744c-0.312,0.232-0.632,0.48-0.944,0.728
	c-2.744-2.2-5.456-4.176-8.152-5.944C70.372,12.864,50.164,6.784,25.356,6.784c-2.752,0-5.856-0.04-9.2-0.08L9.148,6.64
	C7.244,6.72,4.964,7.472,3.452,8.96c-1.52,1.496-2.368,3.544-2.368,5.68v416.168c0,4.424,3.584,8,8,8h22.504
	c0.472-0.008,0.712-0.008,0.944,0c2.536,0,5.168-0.4,7.752-1.136c12.56-3.08,22.68-12.608,26.528-25.344l21.896-91.096
	c1.544-4.856,5.664-5.584,7.368-5.672c3.208-0.136,7.176,1.32,9.408,5.872l21.984,91.352c3.728,12.272,13.848,21.808,26.128,24.808
	c2.872,0.816,5.504,1.216,8.04,1.216c0.336-0.008,0.704,0,0.944,0h33.928c0.344,0,0.72,0,1,0c2.768,0,5.592-0.464,8.288-1.296
	c13.664-3.576,23.888-14.328,26.672-28.056c6.264-30.872,18.432-91.792,29.976-154.784c20.776-29.76,36.312-80.048,36.312-117.952
	C298.748,73.68,280.964,33.848,244.396,14.952z"/>
<g>
	<path style="fill:#B08336;" d="M65.084,174.808c-4.416,0-8-3.576-8-8v-16c0-4.424,3.584-8,8-8s8,3.576,8,8v16
		C73.084,171.232,69.5,174.808,65.084,174.808z"/>
	<path style="fill:#B08336;" d="M65.084,126.808c-4.416,0-8-3.576-8-8c0-60.712,51.288-112,112-112c4.416,0,8,3.576,8,8
		s-3.584,8-8,8c-57.424,0-96,49.64-96,96C73.084,123.232,69.5,126.808,65.084,126.808z"/>
</g>
<path style="fill:#FDC567;" d="M244.396,14.952c-15.312-8.872-44.96-8.504-66.64-8.24c-3.24,0.04-6.256,0.08-8.944,0.08
	c-22.896,0-42.528,5.504-60.032,16.816c-1.832,1.176-3.096,3.064-3.512,5.2s0.064,4.352,1.328,6.136
	c8.808,12.456,21.392,14.424,31.504,16c10.784,1.688,17.112,3.024,21.84,10.864c4.728,7.832,2.944,14.056-0.624,24.376
	c-3.584,10.344-8.032,23.224,0.792,37.856c8.824,14.624,22.296,16.696,33.12,18.352c10.784,1.656,17.112,2.968,21.832,10.808
	c4.728,7.84,2.944,14.064-0.624,24.376c-3.576,10.352-8.032,23.224,0.8,37.864s22.304,16.744,33.128,18.432
	c5.544,0.856,10.776,1.672,14.92,3.968c1.2,0.664,2.528,1,3.872,1c0.8,0,1.6-0.12,2.376-0.36c2.08-0.648,3.808-2.12,4.784-4.072
	c14.848-29.744,24.44-68.088,24.44-97.68C298.748,73.68,280.964,33.848,244.396,14.952z"/>
<path style="fill:#85D9E9;" d="M304.484,238.808c-13.872,0-27.128-5.944-38.44-17.256c-10.488-10.48-16.168-24.408-16.008-39.224
	c0.048-4.392,3.624-7.912,8-7.912c0.024,0,0.056,0,0.088,0c4.416,0.048,7.96,3.664,7.912,8.088
	c-0.112,10.48,3.912,20.328,11.328,27.744c8.56,8.56,18.416,12.976,28.28,12.544c9.264-0.32,18.64-4.784,26.408-12.544
	c15.296-15.296,15.744-42.704,0.944-57.504c-1.504-1.504-2.344-3.528-2.344-5.656s0.84-4.16,2.344-5.656l33.944-33.936
	c3.128-3.128,8.184-3.128,11.312,0s3.128,8.184,0,11.312l-28.744,28.744c6.864,9.52,10.576,21.568,10.344,34.104
	c-0.288,15.168-6.296,29.72-16.488,39.912c-10.64,10.64-23.832,16.76-37.16,17.224C305.628,238.8,305.06,238.808,304.484,238.808z"
	/>
<path style="fill:#D6F2F8;" d="M423.5,96.168l-33.944-33.944c-1.696-1.696-4.032-2.504-6.448-2.304
	c-2.384,0.232-4.536,1.528-5.864,3.52L354.62,97.384c-2.12,3.168-1.696,7.4,1,10.096l22.624,22.624
	c1.544,1.544,3.592,2.344,5.664,2.344c1.536,0,3.08-0.44,4.432-1.344l33.944-22.624c1.992-1.328,3.288-3.488,3.52-5.864
	C426.044,100.232,425.196,97.864,423.5,96.168z"/>
<path style="fill:#85D9E9;" d="M485.724,56.568L429.156,0l-56.568,56.568c-3.12,3.12-3.12,8.192,0,11.312l45.256,45.256
	c1.504,1.504,3.536,2.344,5.656,2.344s4.16-0.84,5.656-2.344L485.724,56.568z"/>
<g>
	<path style="fill:#FDC567;" d="M393.084,254.808h-16c-4.416,0-8-3.576-8-8s3.584-8,8-8h16c4.416,0,8,3.576,8,8
		C401.084,251.232,397.5,254.808,393.084,254.808z"/>
	<path style="fill:#FDC567;" d="M366.74,308.464c-2.048,0-4.096-0.784-5.656-2.344l-11.312-11.312
		c-3.128-3.128-3.128-8.184,0-11.312c3.128-3.128,8.184-3.128,11.312,0l11.312,11.312c3.128,3.128,3.128,8.184,0,11.312
		C370.836,307.68,368.788,308.464,366.74,308.464z"/>
</g>
<g>
</g>
<g>
</g>
<g>
</g>
<g>
</g>
<g>
</g>
<g>
</g>
<g>
</g>
<g>
</g>
<g>
</g>
<g>
</g>
<g>
</g>
<g>
</g>
<g>
</g>
<g>
</g>
<g>
</g>
</svg>
