<?xml version="1.0" encoding="iso-8859-1"?>
<!-- Generator: Adobe Illustrator 19.0.0, SVG Export Plug-In . SVG Version: 6.00 Build 0)  -->
<svg version="1.1" id="Capa_1" xmlns="http://www.w3.org/2000/svg" xmlns:xlink="http://www.w3.org/1999/xlink" x="0px" y="0px"
	 viewBox="0 0 480.191 480.191" style="enable-background:new 0 0 480.191 480.191;" xml:space="preserve">
<path style="fill:#85D9E9;" d="M440.096,0.191h-56v72c0,4.416,3.584,8,8,8h40c4.416,0,8-3.584,8-8V0.191z"/>
<rect x="344.096" y="176.191" style="fill:#D6F2F8;" width="16" height="120"/>
<path style="fill:#F5B9B0;" d="M472.096,352.191H306.36c-22.4-13.776-56.736-35.024-60.984-38.016
	c-1.264-1.112-2.88-1.832-4.672-1.96c-4.224-0.272-7.88,2.632-8.512,6.776l-11.728,76.944
	c-1.864,11.744-11.832,20.256-23.712,20.256h-34.424c-11.4,0-21.296-8.12-23.536-19.296l-16.28-81.416
	c-2.232-11.176-12.128-19.288-23.536-19.288h-5.76c-11.4,0-21.304,8.112-23.536,19.288l-17.568,87.84
	c-1.496,7.456-8.096,12.872-15.688,12.872H8.096c-4.416,0-8,3.576-8,8v48c0,4.424,3.584,8,8,8h464c4.416,0,8-3.576,8-8v-112
	C480.096,355.767,476.512,352.191,472.096,352.191z"/>
<path style="fill:#F0F0F0;" d="M243.408,8.335c-15.312-8.872-44.96-8.496-66.64-8.24c-3.24,0.04-6.256,0.08-8.944,0.08
	c-24.808,0-45.016,6.08-63.376,18.984c-2.016,1.32-3.952,2.768-6.408,4.608l-0.992,0.744c-0.312,0.232-0.632,0.48-0.944,0.728
	c-2.744-2.2-5.456-4.176-8.152-5.944C69.384,6.247,49.176,0.167,24.368,0.167c-2.752,0-5.856-0.04-9.2-0.08L8.16,0.023
	c-2.016,0.08-4.184,0.832-5.696,2.32c-1.52,1.496-2.368,3.544-2.368,5.68v416.168c0,4.424,3.584,8,8,8H30.6
	c0.464-0.008,0.72-0.008,0.944,0c2.536,0,5.168-0.4,7.752-1.136c12.56-3.08,22.68-12.608,26.528-25.344l21.896-91.096
	c1.544-4.856,5.664-5.584,7.368-5.672c3.208-0.136,7.176,1.32,9.408,5.872l21.984,91.352c3.728,12.272,13.848,21.808,26.128,24.808
	c2.872,0.816,5.504,1.216,8.04,1.216c0.336-0.008,0.704,0,0.944,0h33.928c0.352,0,0.72,0,1,0c2.768,0,5.592-0.464,8.288-1.296
	c13.664-3.576,23.888-14.328,26.672-28.056c1.88-9.288,4.304-20.832,7.04-33.952c7.184-34.344,17-81.208,25.136-125.504
	c23.552-33.608,34.112-80.904,34.112-113.272C297.76,67.063,279.976,27.231,243.408,8.335z"/>
<polygon style="fill:#D6F2F8;" points="440.096,64.191 384.096,64.191 384.096,145.079 392.096,145.079 424.096,163.567 
	424.096,168.191 440.096,168.191 "/>
<g>
	<path style="fill:#FCFCFC;" d="M64.096,120.191c-4.416,0-8-3.576-8-8c0-60.712,51.288-112,112-112c4.416,0,8,3.576,8,8
		s-3.584,8-8,8c-57.424,0-96,49.64-96,96C72.096,116.615,68.512,120.191,64.096,120.191z"/>
	<path style="fill:#FCFCFC;" d="M64.096,168.191c-4.416,0-8-3.576-8-8v-16c0-4.424,3.584-8,8-8s8,3.576,8,8v16
		C72.096,164.615,68.512,168.191,64.096,168.191z"/>
</g>
<g>
	<path style="fill:#85D9E9;" d="M384.096,136.191h-48c-4.416,0-8,3.576-8,8v32c0,4.424,3.584,8,8,8h48c9.72,0,16,6.28,16,16v72
		c0,9.72-6.28,16-16,16h-48c-4.416,0-8,3.576-8,8v32c0,4.424,3.584,8,8,8h48c37.088,0,64-26.912,64-64v-80
		C448.096,157.127,424.168,136.191,384.096,136.191z"/>
	<path style="fill:#85D9E9;" d="M243.936,105.175l-23.808-13.024l-13.016-23.8c-2.808-5.144-11.232-5.144-14.04,0l-13.016,23.8
		l-23.808,13.024c-2.552,1.4-4.152,4.096-4.152,7.016s1.6,5.616,4.16,7.016l23.808,13.024l13.016,23.8
		c1.4,2.568,4.088,4.16,7.016,4.16s5.616-1.592,7.016-4.168l13.016-23.8l23.808-13.024c2.56-1.392,4.16-4.088,4.16-7.008
		S246.496,106.575,243.936,105.175z"/>
</g>
<rect x="384.096" y="64.191" style="fill:#FAFAFA;" width="56" height="48"/>
<g>
</g>
<g>
</g>
<g>
</g>
<g>
</g>
<g>
</g>
<g>
</g>
<g>
</g>
<g>
</g>
<g>
</g>
<g>
</g>
<g>
</g>
<g>
</g>
<g>
</g>
<g>
</g>
<g>
</g>
</svg>
