<?xml version="1.0" encoding="iso-8859-1"?>
<!-- Generator: Adobe Illustrator 19.0.0, SVG Export Plug-In . SVG Version: 6.00 Build 0)  -->
<svg version="1.1" id="Capa_1" xmlns="http://www.w3.org/2000/svg" xmlns:xlink="http://www.w3.org/1999/xlink" x="0px" y="0px"
	 viewBox="0 0 480.206 480.206" style="enable-background:new 0 0 480.206 480.206;" xml:space="preserve">
<path style="fill:#F0F0F0;" d="M404.167,9.318c-16.784-9.912-49.896-9.504-74.08-9.2c-3.616,0.048-6.984,0.088-9.984,0.088
	c-27.472,0-49.84,6.72-70.184,21.016c-2.264,1.488-4.432,3.104-7.152,5.144l-1.056,0.792c-0.536,0.416-1.072,0.84-1.6,1.272
	c-3.224-2.624-6.424-4.968-9.616-7.064c-20.552-14.44-42.92-21.16-70.392-21.16c-3,0-6.368-0.04-9.992-0.088
	c-24.208-0.312-57.304-0.712-73.664,8.968C35.839,29.95,16.103,74.142,16.103,144.206c0,42.184,17.32,98.16,40.448,131.184
	c12.888,70.312,26.48,138.352,33.472,172.816c3.032,14.968,14.176,26.68,28.744,30.496c3.16,0.968,6.2,1.328,9.52,1.456
	c0.32,0.024,0.696,0.048,0.928,0.048h37.84c0.464,0,0.8,0,1.048,0c2.744,0,5.6-0.432,8.432-1.24
	c13.688-3.344,24.72-13.736,28.88-27.44l26.944-103.824c1.448-5.56,6.296-5.992,7.744-5.992c1.448,0,6.304,0.44,7.744,5.992
	l27.032,104.152c4.064,13.376,15.104,23.784,28.504,27.056c2.96,0.84,5.68,1.296,8.864,1.296h0.008c0.312,0,0.672,0,0.896,0h37.84
	c0.224,0,0.448-0.008,0.592-0.016c0.192,0.008,0.376,0.016,0.52,0.016c2.984,0,6.032-0.496,9.008-1.416
	c14.896-3.896,26.032-15.616,29.072-30.584c6.992-34.464,20.584-102.496,33.472-172.816c23.128-33.024,40.448-89,40.448-131.184
	C464.103,74.142,444.367,29.95,404.167,9.318z"/>
<path style="fill:#FDC567;" d="M404.167,9.318c-16.784-9.912-49.896-9.504-74.08-9.2c-3.616,0.048-6.984,0.088-9.984,0.088
	c-27.472,0-49.84,6.72-70.184,21.016c-2.264,1.488-4.432,3.104-7.152,5.144l-1.056,0.792c-0.536,0.416-1.072,0.84-1.6,1.272
	c-3.224-2.624-6.424-4.968-9.616-7.064c-20.552-14.44-42.92-21.16-70.392-21.16c-3,0-6.368-0.04-9.992-0.088
	c-24.208-0.312-57.304-0.712-73.664,8.968C35.839,29.95,16.103,74.142,16.103,144.206c0,42.184,17.32,98.16,40.448,131.184
	c1.784,9.704,3.576,19.392,5.376,28.984c0.568,3.024,2.816,5.456,5.784,6.248c3.944,1.072,7.984,1.584,12.36,1.584
	c19.312,0,29.48-10.168,37.648-18.344c7.624-7.632,13.648-13.656,26.328-13.656s18.712,6.024,26.336,13.656
	c8.168,8.176,18.344,18.344,37.648,18.344c19.32,0,29.496-10.168,37.664-18.344c7.632-7.632,13.664-13.656,26.352-13.656
	c12.68,0,18.712,6.024,26.336,13.656c8.168,8.176,18.344,18.344,37.648,18.344c19.328,0,29.504-10.168,37.672-18.344
	c7.64-7.632,13.672-13.656,26.368-13.656c4.552,0,8.52,0.8,12.144,2.448c2.232,1.008,4.856,0.736,7.048-0.408
	c2.184-1.136,3.76-3.432,4.208-5.848l0.184-1c23.128-33.032,40.448-89.008,40.448-131.192
	C464.103,74.142,444.367,29.95,404.167,9.318z"/>
<g>
	<path style="fill:#B08336;" d="M344.103,88.206h-16c-4.416,0-8-3.584-8-8s3.584-8,8-8h16c4.416,0,8,3.584,8,8
		S348.519,88.206,344.103,88.206z"/>
	<path style="fill:#B08336;" d="M344.103,184.206h-16c-4.416,0-8-3.584-8-8s3.584-8,8-8h16c4.416,0,8,3.584,8,8
		S348.519,184.206,344.103,184.206z"/>
	<path style="fill:#B08336;" d="M280.103,136.206h-16c-4.416,0-8-3.584-8-8c0-4.416,3.584-8,8-8h16c4.416,0,8,3.584,8,8
		C288.103,132.622,284.519,136.206,280.103,136.206z"/>
	<path style="fill:#B08336;" d="M408.103,136.206h-16c-4.416,0-8-3.584-8-8c0-4.416,3.584-8,8-8h16c4.416,0,8,3.584,8,8
		C416.103,132.622,412.519,136.206,408.103,136.206z"/>
	<path style="fill:#B08336;" d="M344.103,136.206h-16c-4.416,0-8-3.584-8-8c0-4.416,3.584-8,8-8h16c4.416,0,8,3.584,8,8
		C352.103,132.622,348.519,136.206,344.103,136.206z"/>
	<path style="fill:#B08336;" d="M200.103,144.206c-4.416,0-8-3.584-8-8c0-77.528,55.024-136,128-136c4.416,0,8,3.584,8,8
		s-3.584,8-8,8c-63.848,0-112,51.592-112,120C208.103,140.622,204.519,144.206,200.103,144.206z"/>
	<path style="fill:#B08336;" d="M200.103,216.206c-4.416,0-8-3.584-8-8v-24c0-4.416,3.584-8,8-8s8,3.584,8,8v24
		C208.103,212.622,204.519,216.206,200.103,216.206z"/>
</g>
<g>
</g>
<g>
</g>
<g>
</g>
<g>
</g>
<g>
</g>
<g>
</g>
<g>
</g>
<g>
</g>
<g>
</g>
<g>
</g>
<g>
</g>
<g>
</g>
<g>
</g>
<g>
</g>
<g>
</g>
</svg>
