<?xml version="1.0" encoding="iso-8859-1"?>
<!-- Generator: Adobe Illustrator 19.0.0, SVG Export Plug-In . SVG Version: 6.00 Build 0)  -->
<svg width="51px" height="51px" version="1.1" id="Capa_1" xmlns="http://www.w3.org/2000/svg" xmlns:xlink="http://www.w3.org/1999/xlink" x="0px" y="0px"
	 viewBox="0 0 480.195 480.195" style="enable-background:new 0 0 480.195 480.195;" xml:space="preserve">
<path style="fill:#F0F0F0;" d="M243.401,8.331c-15.304-8.872-44.984-8.496-66.632-8.232c-3.24,0.04-6.256,0.08-8.944,0.08
	c-24.816,0-45.016,6.072-63.384,18.976c-2.048,1.344-4.008,2.808-6.488,4.672l-0.904,0.68c-0.32,0.248-0.632,0.496-0.944,0.744
	c-2.744-2.2-5.488-4.2-8.152-5.952C69.385,6.259,49.177,0.179,24.369,0.179c-2.704,0-5.736-0.04-8.992-0.08l-7.216-0.08
	c-2.464,0.144-4.176,0.816-5.696,2.32c-1.52,1.504-2.368,3.544-2.368,5.68v416.176c0,4.416,3.576,8,8,8h22.504
	c0.184,0,0.368-0.008,0.504-0.016c0.16,0.016,0.312,0.016,0.44,0.016c2.528,0,5.168-0.392,7.76-1.136
	c12.552-3.072,22.68-12.608,26.528-25.336l21.888-91.104c1.536-4.848,5.664-5.576,7.368-5.664c3.192-0.128,7.176,1.32,9.416,5.864
	l21.984,91.352c3.728,12.272,13.848,21.808,26.136,24.808c2.864,0.824,5.496,1.216,8.024,1.216c0.184,0,0.376-0.008,0.504-0.016
	c0.168,0.016,0.32,0.016,0.44,0.016h33.928c0.456,0.008,0.768,0,1,0c2.744,0,5.552-0.456,8.28-1.296
	c13.672-3.576,23.888-14.336,26.672-28.056c6.216-30.664,18.344-91.312,29.968-154.784c20.784-29.752,36.32-80.032,36.32-117.944
	C297.761,67.067,279.977,27.227,243.401,8.331z"/>
<path style="fill:#FDC567;" d="M290.457,158.171c-7.264-4.816-15.448-8.456-24.36-10.84c-7.248-11.896-19.96-19.136-34-19.136
	c-19.208,0-35.504,13.824-39.12,32.304c-1.656-0.2-3.28-0.304-4.88-0.304c-24.256,0-44,19.736-44,44
	c0,12.136,4.976,23.536,13.6,31.76c-3.648,6.128-5.6,13.104-5.6,20.24c0,22.056,17.944,40.008,40,40.008
	c0.896,0,1.792-0.032,2.672-0.12c14.024,10.24,30.504,16.112,47.872,16.112c0.048,0,0.096,0,0.144,0
	c3.832,0,7.136-2.752,7.856-6.528c3.552-18.56,7.216-38.048,10.8-57.608c14.328-20.504,26.408-50.864,32.448-81.68
	C294.513,163.195,293.153,159.955,290.457,158.171z"/>
<path style="fill:#F5B9B0;" d="M472.097,352.195H306.369c-22.6-13.952-57.184-35.416-61.16-38.152
	c-1.232-1.032-2.8-1.696-4.512-1.832c-4.112-0.28-7.88,2.64-8.504,6.768l-11.728,76.952c-1.856,11.744-11.832,20.264-23.712,20.264
	h-34.424c-11.408,0-21.304-8.112-23.536-19.296l-16.28-81.408c-2.232-11.176-12.128-19.296-23.536-19.296h-5.76
	c-11.408,0-21.304,8.12-23.528,19.296l-17.576,87.848c-1.496,7.448-8.088,12.856-15.688,12.856H8.097c-4.424,0-8,3.584-8,8v48
	c0,4.416,3.576,8,8,8h464c4.424,0,8-3.584,8-8v-112C480.097,355.779,476.521,352.195,472.097,352.195z"/>
<path style="fill:#B6E8F2;" d="M381.265,250.091c-1.792-1.512-4.168-2.168-6.488-1.784l-54.68,9.112v45.552l54.688,9.112
	c0.44,0.08,0.872,0.112,1.312,0.112c1.88,0,3.72-0.664,5.168-1.896c1.8-1.52,2.832-3.752,2.832-6.104v-48
	C384.097,253.843,383.065,251.611,381.265,250.091z"/>
<g>
	<path style="fill:#85D9E9;" d="M480.097,216.195h-64v25.224l-48,8v61.552l84.056,14.008c1.32,0.216,2.64,0.328,3.96,0.328
		c10.792,0,21.008-7.264,23.984-19.96V216.195z"/>
	<path style="fill:#85D9E9;" d="M336.097,256.195h-23.056c-11.608,0-22.272,7.824-24.48,19.216
		c-2.976,15.32,8.736,28.784,23.536,28.784h24V256.195z"/>
	<rect x="416.097" y="0.195" style="fill:#85D9E9;" width="64" height="192"/>
</g>
<path style="fill:#FAFAFA;" d="M440.097,288.195h-8c-4.424,0-8-3.584-8-8s3.576-8,8-8h8c4.424,0,8,3.584,8,8
	S444.521,288.195,440.097,288.195z"/>
<g>
	<path style="fill:#FCFCFC;" d="M64.097,120.195c-4.424,0-8-3.584-8-8c0-60.72,51.168-112.016,111.728-112.016c4.424,0,8,3.584,8,8
		s-3.576,8-8,8c-57.256,0-95.728,49.648-95.728,96.016C72.097,116.611,68.521,120.195,64.097,120.195z"/>
	<path style="fill:#FCFCFC;" d="M64.097,168.195c-4.424,0-8-3.584-8-8v-16c0-4.416,3.576-8,8-8s8,3.584,8,8v16
		C72.097,164.611,68.521,168.195,64.097,168.195z"/>
</g>
<rect x="416.097" y="176.195" style="fill:#B6E8F2;" width="64" height="56"/>
<g>
</g>
<g>
</g>
<g>
</g>
<g>
</g>
<g>
</g>
<g>
</g>
<g>
</g>
<g>
</g>
<g>
</g>
<g>
</g>
<g>
</g>
<g>
</g>
<g>
</g>
<g>
</g>
<g>
</g>
</svg>
