<?xml version="1.0" encoding="iso-8859-1"?>
<!-- Generator: Adobe Illustrator 19.0.0, SVG Export Plug-In . SVG Version: 6.00 Build 0)  -->
<svg width="51px" height="51px" version="1.1" id="Capa_1" xmlns="http://www.w3.org/2000/svg" xmlns:xlink="http://www.w3.org/1999/xlink" x="0px" y="0px"
	 viewBox="0 0 480.008 480.008" style="enable-background:new 0 0 480.008 480.008;" xml:space="preserve">
<path d="M306.168,284.124c-14.352,0-21.768-7.416-27.728-13.376c-5.048-5.048-8.696-8.696-16.416-8.696
	c-7.728,0-11.376,3.648-16.424,8.696c-5.96,5.96-13.376,13.376-27.728,13.376s-21.768-7.416-27.728-13.376
	c-5.048-5.048-8.696-8.696-16.416-8.696s-11.36,3.648-16.408,8.688c-5.952,5.968-13.376,13.384-27.72,13.384
	c-3.24,0-6.248-0.384-9.176-1.176c-2.968-0.8-5.208-3.232-5.776-6.248l-3.616-19.464c-16.056-23.216-28.04-62.128-28.04-91.48
	c0-49.344,14.056-80.552,42.968-95.408c11.768-6.96,35.008-6.672,51.984-6.464c2.488,0.032,4.8,0.056,6.856,0.056
	c19.488,0,35.368,4.784,49.984,15.048c1.72,1.136,3.464,2.376,5.216,3.744l0.416-0.312c1.816-1.368,3.352-2.512,4.968-3.576
	c14.408-10.128,30.288-14.904,49.776-14.904c2.064,0,4.376-0.024,6.856-0.056c16.968-0.232,40.216-0.496,52.4,6.688
	c28.496,14.624,42.552,45.832,42.552,95.176c0,29.352-11.984,68.264-28.04,91.48l-0.088,0.432c-0.44,2.424-1.976,4.512-4.168,5.656
	c-2.176,1.144-4.776,1.208-7.016,0.192c-2.192-1-4.52-1.464-7.344-1.464c-7.736,0-11.384,3.648-16.432,8.696
	C327.952,276.7,320.52,284.124,306.168,284.124z M262.032,246.044c14.352,0,21.768,7.416,27.728,13.376
	c5.048,5.048,8.696,8.696,16.416,8.696c7.736,0,11.384-3.648,16.432-8.696c5.96-5.96,13.392-13.376,27.744-13.376
	c2.256,0,4.408,0.184,6.48,0.56C370.536,225.884,381,191.188,381,165.756c0-43.368-10.888-69.16-34.28-81.176
	c-8.736-5.144-31.112-4.856-44.48-4.696c-2.552,0.032-4.928,0.064-7.056,0.064c-16.032,0-28.992,3.856-40.784,12.144
	c-1.528,1.008-2.792,1.96-4.048,2.904l-5.848-5.616l4.912,6.32c-1.408,1.088-2.752,2.232-4.08,3.416
	c-3.04,2.72-7.64,2.704-10.68-0.008c-2.976-2.664-5.864-4.92-8.848-6.88c-11.992-8.416-24.952-12.28-40.984-12.28
	c-2.128,0-4.496-0.024-7.056-0.064c-13.368-0.16-35.752-0.448-44.064,4.472c-23.808,12.248-34.696,38.04-34.696,81.408
	c0,26.608,11.456,63.336,26.08,83.616c0.688,0.968,1.168,2.064,1.376,3.232l2.88,15.52c7.536,0.056,11.568-3.584,16.68-8.688
	c5.952-5.968,13.376-13.384,27.72-13.384c14.352,0,21.768,7.416,27.728,13.376c5.048,5.048,8.696,8.696,16.416,8.696
	s11.368-3.648,16.416-8.688C240.256,253.468,247.68,246.044,262.032,246.044z"/>
<path style="fill:#F0F0F0;" d="M354.44,70.572c-12.176-7.192-35.432-6.928-52.4-6.688c-2.488,0.032-4.8,0.056-6.856,0.056
	c-19.488,0-35.368,4.784-49.776,14.904c-1.616,1.064-3.16,2.208-4.968,3.576l-0.416,0.312c-1.76-1.36-3.504-2.608-5.216-3.744
	c-14.616-10.264-30.496-15.048-49.984-15.048c-2.064,0-4.376-0.024-6.856-0.056c-16.976-0.216-40.216-0.496-51.984,6.464
	c-28.912,14.856-42.968,46.064-42.968,95.408c0,29.344,11.976,68.248,28.032,91.464c8.832,48.184,18.184,94.968,23,118.72
	c2.288,11.256,10.664,20.072,21.552,22.92c2.344,0.712,4.52,1.088,7.136,1.104c0.264,0.024,0.56,0.04,0.768,0.04l26.144-0.032
	c2.784,0.208,4.808-0.24,7.088-0.896c10.304-2.512,18.592-10.336,21.736-20.704l18.592-71.624c0.496-1.88,1.864-2.272,2.936-2.272
	s2.448,0.392,2.936,2.28l18.68,71.928c3.056,10.064,11.344,17.88,21.352,20.32c2.376,0.672,4.56,1,6.696,1c0.232,0,0.528,0,0.728,0
	l26.096-0.04c0.272,0.024,0.552,0.04,0.768,0.04c2.28,0,4.624-0.376,6.848-1.056c11.184-2.936,19.56-11.744,21.848-23
	c4.816-23.76,14.168-70.536,23-118.72c16.056-23.216,28.032-62.12,28.032-91.464C396.992,116.404,382.936,85.196,354.44,70.572z
	 M244.496,89.372L244.496,89.372L244.496,89.372L244.496,89.372z"/>
<path style="fill:#FDC567;" d="M354.44,70.572c-12.176-7.192-35.432-6.928-52.4-6.688c-2.488,0.032-4.8,0.056-6.856,0.056
	c-19.488,0-35.368,4.784-49.776,14.904c-1.616,1.064-3.16,2.208-4.968,3.576l-0.416,0.312c-1.76-1.36-3.504-2.608-5.216-3.744
	c-14.616-10.264-30.496-15.048-49.984-15.048c-2.064,0-4.376-0.024-6.856-0.056c-16.976-0.216-40.216-0.496-51.984,6.464
	c-28.912,14.856-42.968,46.064-42.968,95.408c0,29.352,11.984,68.264,28.04,91.48l3.616,19.464c0.56,3.016,2.808,5.448,5.776,6.248
	c2.928,0.792,5.936,1.176,9.176,1.176c14.344,0,21.768-7.416,27.72-13.384c5.048-5.048,8.688-8.688,16.408-8.688
	s11.368,3.648,16.416,8.696c5.96,5.96,13.376,13.376,27.728,13.376s21.768-7.416,27.728-13.376
	c5.048-5.048,8.696-8.696,16.424-8.696c7.72,0,11.368,3.648,16.416,8.696c5.96,5.96,13.376,13.376,27.728,13.376
	s21.784-7.416,27.744-13.376c5.048-5.048,8.696-8.696,16.432-8.696c2.824,0,5.152,0.464,7.344,1.464
	c2.24,1.016,4.832,0.952,7.016-0.192c2.184-1.144,3.728-3.224,4.168-5.656l0.088-0.432c16.056-23.216,28.04-62.12,28.04-91.48
	C396.992,116.404,382.936,85.196,354.44,70.572z M244.496,89.372L244.496,89.372L244.496,89.372L244.496,89.372z"/>
<g>
	<path style="fill:#8F6F3A;" d="M192,64.004h-40c-8.824,0-16,7.176-16,16v8c0,13.232,10.768,24,24,24h24c13.232,0,24-10.768,24-24
		v-8C208,71.18,200.824,64.004,192,64.004z"/>
	<path style="fill:#8F6F3A;" d="M312,128.004h-8c-4.424,0-8-3.584-8-8s3.576-8,8-8h8c4.424,0,8,3.584,8,8
		S316.424,128.004,312,128.004z"/>
	<path style="fill:#8F6F3A;" d="M312,192.004h-8c-4.424,0-8-3.584-8-8s3.576-8,8-8h8c4.424,0,8,3.584,8,8
		S316.424,192.004,312,192.004z"/>
	<path style="fill:#8F6F3A;" d="M352,160.004h-8c-4.424,0-8-3.584-8-8s3.576-8,8-8h8c4.424,0,8,3.584,8,8
		S356.424,160.004,352,160.004z"/>
	<path style="fill:#8F6F3A;" d="M312,160.004h-8c-4.424,0-8-3.584-8-8s3.576-8,8-8h8c4.424,0,8,3.584,8,8
		S316.424,160.004,312,160.004z"/>
	<path style="fill:#8F6F3A;" d="M264,160.004h-8c-4.424,0-8-3.584-8-8s3.576-8,8-8h8c4.424,0,8,3.584,8,8
		S268.424,160.004,264,160.004z"/>
</g>
<path style="fill:#ADE6F1;" d="M94.272,3.036C92.76,1.124,90.448,0.004,88,0.004H8c-4.424,0-8,3.584-8,8v130.92
	c0,4.984,1.52,9.768,4.392,13.84l59.784,84.68c3.144,4.456,7.904,6.856,12.888,6.856c2.512,0,5.08-0.608,7.52-1.872
	c7.288-3.768,10.472-11.8,7.744-19.536l-28-79.336L95.792,9.836C96.344,7.46,95.792,4.956,94.272,3.036z"/>
<g>
	<path style="fill:#FCFCFC;" d="M32,120.004c-1.04,0-2.08-0.24-3.04-0.64c-1.04-0.4-1.84-0.96-2.64-1.68
		c-1.448-1.52-2.32-3.6-2.32-5.68s0.872-4.16,2.32-5.68c3.04-2.96,8.4-2.96,11.36,0c1.44,1.52,2.32,3.6,2.32,5.68
		s-0.88,4.16-2.32,5.68C36.16,119.124,34.08,120.004,32,120.004z"/>
	<path style="fill:#FCFCFC;" d="M40,88.004h-8c-4.424,0-8-3.584-8-8s3.576-8,8-8h8c4.424,0,8,3.584,8,8S44.424,88.004,40,88.004z"/>
	<path style="fill:#FCFCFC;" d="M48,56.004H32c-4.424,0-8-3.584-8-8s3.576-8,8-8h16c4.424,0,8,3.584,8,8S52.424,56.004,48,56.004z"
		/>
</g>
<path style="fill:#ADE6F1;" d="M472,0.004h-80c-2.448,0-4.76,1.12-6.272,3.032c-1.512,1.92-2.072,4.424-1.512,6.8l31.464,133.72
	l-28,79.336c-2.728,7.736,0.456,15.776,7.744,19.536c2.448,1.264,5.008,1.872,7.52,1.872c4.976,0,9.752-2.4,12.896-6.856
	l59.768-84.68c2.872-4.072,4.4-8.856,4.4-13.84V8.004C480,3.588,476.424,0.004,472,0.004z"/>
<g>
	<path style="fill:#FCFCFC;" d="M448,120.004c-0.488,0-1.04-0.08-1.6-0.16c-0.48-0.08-0.96-0.24-1.44-0.48
		c-0.488-0.16-0.96-0.4-1.448-0.72c-0.4-0.32-0.8-0.64-1.192-0.96c-1.448-1.52-2.32-3.6-2.32-5.68c0-1.04,0.24-2.08,0.64-3.04
		c0.4-1.04,0.96-1.84,1.68-2.64c0.4-0.32,0.8-0.72,1.192-0.96c0.488-0.32,0.96-0.56,1.448-0.72c0.48-0.24,0.96-0.4,1.44-0.48
		c2.64-0.48,5.36,0.32,7.2,2.16c0.8,0.8,1.36,1.6,1.76,2.64c0.4,0.96,0.64,2,0.64,3.04c0,0.48-0.08,1.04-0.168,1.6
		c-0.08,0.48-0.232,0.96-0.48,1.44c-0.168,0.48-0.4,0.96-0.72,1.44c-0.32,0.4-0.64,0.8-1.04,1.2
		C452.16,119.124,450.08,120.004,448,120.004z"/>
	<path style="fill:#FCFCFC;" d="M448,88.004h-8c-4.424,0-8-3.584-8-8s3.576-8,8-8h8c4.424,0,8,3.584,8,8S452.424,88.004,448,88.004z
		"/>
	<path style="fill:#FCFCFC;" d="M448,56.004h-16c-4.424,0-8-3.584-8-8s3.576-8,8-8h16c4.424,0,8,3.584,8,8
		S452.424,56.004,448,56.004z"/>
</g>
<g>
	<path style="fill:#8F6F3A;" d="M216,216.004c-4.424,0-8-3.584-8-8v-16c0-4.416,3.576-8,8-8s8,3.584,8,8v16
		C224,212.42,220.424,216.004,216,216.004z"/>
	<path style="fill:#8F6F3A;" d="M216,168.004c-4.424,0-8-3.584-8-8c0-59.672,34.928-94.664,95.832-96
		c4.624,0.12,8.08,3.408,8.168,7.824c0.096,4.416-3.408,8.08-7.832,8.176c-66.264,1.456-80.168,44.304-80.168,80
		C224,164.42,220.424,168.004,216,168.004z"/>
</g>
<path style="fill:#F5B9B0;" d="M472,264.004h-76.304c-10.496,0-19.688,6.72-22.864,16.72l-22.864,71.816
	c-15.208,29.296-45.08,47.464-78.12,47.464H204.92c-33.704,0-64.768-19.568-79.328-49.912l-18.656-68.4
	c-2.84-10.416-12.36-17.688-23.152-17.688H8c-4.424,0-8,3.584-8,8v200c0,4.416,3.576,8,8,8h464c4.424,0,8-3.584,8-8v-200
	C480,267.588,476.424,264.004,472,264.004z"/>
<g>
</g>
<g>
</g>
<g>
</g>
<g>
</g>
<g>
</g>
<g>
</g>
<g>
</g>
<g>
</g>
<g>
</g>
<g>
</g>
<g>
</g>
<g>
</g>
<g>
</g>
<g>
</g>
<g>
</g>
</svg>
