<?xml version="1.0" encoding="iso-8859-1"?>
<!-- Generator: Adobe Illustrator 19.0.0, SVG Export Plug-In . SVG Version: 6.00 Build 0)  -->
<svg version="1.1" id="Capa_1" xmlns="http://www.w3.org/2000/svg" xmlns:xlink="http://www.w3.org/1999/xlink" x="0px" y="0px"
	 viewBox="0 0 496 496" style="enable-background:new 0 0 496 496;" xml:space="preserve">
<path style="fill:#F5B9B0;" d="M464,320.106h-72c-3.728,0-6.96,2.568-7.8,6.2l-19.704,85.4c-1.68,7.296-8.096,12.4-15.592,12.4
	h-35.608c-6.896,0-12.992-4.392-15.016-10.392l-22.672-88.512c-3.176-12.424-14.36-21.096-27.168-21.096
	c-13.328,0-24.888,9.488-27.504,22.544l-16.92,84.592c-1.496,7.456-8.088,12.864-15.688,12.864h-41.232
	c-7.496,0-13.904-5.096-15.592-12.4l-19.704-85.4c-0.84-3.632-4.072-6.2-7.8-6.2H32c-13.232,0-24,10.768-24,24v136
	c0,4.416,3.584,8,8,8h464c4.424,0,8-3.584,8-8v-136C488,330.874,477.232,320.106,464,320.106z"/>
<path style="fill:#F0F0F0;" d="M395.52,16.37c-15.24-9-45.024-8.616-66.848-8.36c-3.24,0.04-6.256,0.08-8.944,0.08
	c-24.816,0-45.016,6.072-63.392,18.984c-2.048,1.344-4.008,2.808-6.4,4.608l-0.992,0.736c-0.304,0.24-0.624,0.488-0.936,0.736
	c-2.736-2.2-5.456-4.176-8.152-5.952c-18.576-13.04-38.776-19.12-63.584-19.12c-2.688,0-5.704-0.04-8.944-0.08
	c-21.8-0.288-51.608-0.648-66.44,8.136C64.176,34.994,46.336,74.866,46.336,138.026c0,37.904,15.536,88.192,36.312,117.944
	c11.56,63.072,23.72,123.952,29.976,154.784c2.784,13.728,13,24.488,26.352,27.968c3.048,0.928,5.864,1.384,8.608,1.384
	c0.44,0,0.768,0,1,0h33.928c0.184,0,0.368-0.008,0.504-0.016c0.152,0.016,0.304,0.016,0.432,0.016c2.536,0,5.168-0.392,7.752-1.136
	c12.56-3.08,22.68-12.608,26.528-25.336l21.896-91.104c1.544-4.848,5.664-5.576,7.368-5.664c3.192-0.128,7.176,1.32,9.408,5.864
	l21.984,91.36c3.736,12.264,13.848,21.8,26.136,24.8c2.872,0.824,5.504,1.216,8.032,1.216c0.184,0,0.376-0.008,0.504-0.016
	c0.168,0.016,0.32,0.016,0.44,0.016h33.928c0.464,0.008,0.768,0,1,0c2.744,0,5.552-0.456,8.28-1.296
	c13.672-3.576,23.888-14.328,26.672-28.056c6.28-30.976,18.488-92.032,29.976-154.784c20.784-29.76,36.312-80.04,36.312-117.944
	C449.664,74.866,431.824,34.994,395.52,16.37z"/>
<path style="fill:#FCFCFC;" d="M216,128.106c-4.416,0-8-3.584-8-8C208,59.386,259.168,8.09,319.728,8.09c4.424,0,8,3.584,8,8
	s-3.576,8-8,8C262.472,24.09,224,73.738,224,120.106C224,124.522,220.416,128.106,216,128.106z"/>
<g>
	<path style="fill:#85D9E9;" d="M272,216.106v-32c0-13.256,10.744-24,24-24h64c13.256,0,24,10.744,24,24v32
		c0,13.256-10.744,24-24,24h-64C282.744,240.106,272,229.362,272,216.106z"/>
	<path style="fill:#85D9E9;" d="M224,216.106v-32c0-13.256-10.744-24-24-24h-64c-13.256,0-24,10.744-24,24v32
		c0,13.256,10.744,24,24,24h64C213.256,240.106,224,229.362,224,216.106z"/>
</g>
<path style="fill:#B6E8F2;" d="M488,208.106h-96v-16h96c4.424,0,8-3.584,8-8s-3.576-8-8-8h-97.136c-3.576-13.76-15.992-24-30.864-24
	h-16h-32h-16c-14.872,0-27.288,10.24-30.864,24h-34.272c-3.576-13.76-16-24-30.864-24h-16h-32h-16c-14.864,0-27.288,10.24-30.864,24
	H8c-4.416,0-8,3.584-8,8s3.584,8,8,8h96v16H8c-4.416,0-8,3.584-8,8s3.584,8,8,8h97.136c3.576,13.76,16,24,30.864,24h16h32h16
	c14.864,0,27.288-10.24,30.864-24h34.272c3.576,13.76,15.992,24,30.864,24h16h32h16c14.872,0,27.288-10.24,30.864-24H488
	c4.424,0,8-3.584,8-8S492.424,208.106,488,208.106z M336,168.106v24h-16v-24H336z M232,192.106h32v16h-32V192.106z M176,168.106v24
	h-16v-24H176z M120,216.106v-32c0-8.824,7.176-16,16-16h8v64h-8C127.176,232.106,120,224.93,120,216.106z M160,232.106v-24h16v24
	H160z M200,232.106h-8v-64h8c8.824,0,16,7.176,16,16v32C216,224.93,208.824,232.106,200,232.106z M280,216.106v-32
	c0-8.824,7.176-16,16-16h8v64h-8C287.176,232.106,280,224.93,280,216.106z M320,232.106v-24h16v24H320z M360,232.106h-8v-64h8
	c8.824,0,16,7.176,16,16v32C376,224.93,368.824,232.106,360,232.106z"/>
<g>
</g>
<g>
</g>
<g>
</g>
<g>
</g>
<g>
</g>
<g>
</g>
<g>
</g>
<g>
</g>
<g>
</g>
<g>
</g>
<g>
</g>
<g>
</g>
<g>
</g>
<g>
</g>
<g>
</g>
</svg>
