<?xml version="1.0" encoding="iso-8859-1"?>
<!-- Generator: Adobe Illustrator 19.0.0, SVG Export Plug-In . SVG Version: 6.00 Build 0)  -->
<svg width="51px" height="51px" version="1.1" id="Capa_1" xmlns="http://www.w3.org/2000/svg" xmlns:xlink="http://www.w3.org/1999/xlink" x="0px" y="0px"
	 viewBox="0 0 480.225 480.225" style="enable-background:new 0 0 480.225 480.225;" xml:space="preserve">
<path style="fill:#F0F0F0;" d="M404.185,9.313c-16.784-9.912-49.92-9.504-74.088-9.2c-3.616,0.048-6.984,0.088-9.984,0.088
	c-27.472,0-49.832,6.72-70.184,21.016c-2.272,1.488-4.448,3.112-7.096,5.104l-1.112,0.832c-0.536,0.416-1.072,0.84-1.6,1.272
	c-3.224-2.624-6.432-4.976-9.616-7.064c-20.56-14.44-42.92-21.16-70.392-21.16c-3,0-6.368-0.04-9.984-0.088
	c-24.208-0.296-57.304-0.712-73.672,8.968c-40.6,20.864-60.344,65.064-60.344,135.12c0,42.176,17.312,98.152,40.456,131.192
	c12.84,70.12,26.464,138.272,33.464,172.816c3.04,14.968,14.176,26.696,28.752,30.504c3.144,0.968,6.064,1.488,9.496,1.488
	c0,0,0.016,0,0.024,0c0.32,0,0.696,0,0.92,0h37.84c0.488,0.008,0.808,0,1.048,0c2.784,0,5.544-0.416,8.432-1.24
	c13.688-3.344,24.72-13.736,28.88-27.44l26.944-103.824c1.448-5.552,6.288-5.984,7.744-5.984s6.296,0.44,7.744,5.992l27.032,104.16
	c4.08,13.376,15.112,23.776,28.512,27.048c2.992,0.848,5.632,1.288,8.84,1.288c0.008,0,0.024,0,0.032,0
	c0.304,0,0.672,0.024,0.888,0.024l38.032-0.072c0.32,0.024,0.68,0.048,0.92,0.048c2.976,0,6.024-0.496,9.008-1.416
	c14.896-3.896,26.04-15.616,29.08-30.584c7-34.544,20.616-102.696,33.464-172.816c23.136-33.032,40.448-89.008,40.448-131.184
	C464.113,74.145,444.369,29.945,404.185,9.313z"/>
<g>
	<path style="fill:#FCFCFC;" d="M384.113,104.201h-8v-8c0-4.416-3.576-8-8-8s-8,3.584-8,8v8h-8c-4.424,0-8,3.584-8,8s3.576,8,8,8h8
		v8c0,4.416,3.576,8,8,8s8-3.584,8-8v-8h8c4.424,0,8-3.584,8-8S388.537,104.201,384.113,104.201z"/>
	<path style="fill:#FCFCFC;" d="M296.113,184.201h-112c-4.424,0-8,3.584-8,8v33.832c0,5.12,0.96,10.12,2.856,14.856l9.688,24.216
		c3.672,9.176,12.416,15.096,22.288,15.096h2.328c9.872,0,18.616-5.92,22.288-15.088l4.552-11.376l4.544,11.376
		c3.672,9.168,12.416,15.088,22.288,15.088h2.328c9.872,0,18.616-5.92,22.288-15.088l9.68-24.216
		c1.912-4.736,2.872-9.736,2.872-14.864v-33.832C304.113,187.785,300.537,184.201,296.113,184.201z"/>
	<path style="fill:#FCFCFC;" d="M144.113,200.201h-8v-8c0-4.416-3.576-8-8-8s-8,3.584-8,8v8h-8c-4.424,0-8,3.584-8,8s3.576,8,8,8h8
		v8c0,4.416,3.576,8,8,8s8-3.584,8-8v-8h8c4.424,0,8-3.584,8-8S148.537,200.201,144.113,200.201z"/>
</g>
<path style="fill:#85D9E9;" d="M317.665,114.449c-2-1.936-4.856-2.68-7.56-1.992l-37.696,9.768l-25.64-38.464
	c-3.168-4.752-10.144-4.752-13.312,0l-25.64,38.464l-37.696-9.768c-2.672-0.696-5.56,0.048-7.56,1.992
	c-2.008,1.936-2.856,4.768-2.256,7.488l17.384,78.264h124.84l17.392-78.264C320.529,119.217,319.673,116.377,317.665,114.449z"/>
<g>
</g>
<g>
</g>
<g>
</g>
<g>
</g>
<g>
</g>
<g>
</g>
<g>
</g>
<g>
</g>
<g>
</g>
<g>
</g>
<g>
</g>
<g>
</g>
<g>
</g>
<g>
</g>
<g>
</g>
</svg>
