<?xml version="1.0" encoding="iso-8859-1"?>
<!-- Generator: Adobe Illustrator 19.0.0, SVG Export Plug-In . SVG Version: 6.00 Build 0)  -->
<svg  width="51px" height="51px" version="1.1" id="Capa_1" xmlns="http://www.w3.org/2000/svg" xmlns:xlink="http://www.w3.org/1999/xlink" x="0px" y="0px"
	 viewBox="0 0 512 512" style="enable-background:new 0 0 512 512;" xml:space="preserve">
<path style="fill:#F7A6A6;" d="M426.372,293.332c-22.007-6.294-45.374,3.99-55.614,24.461l0,0
	c-71.645-38.577-157.873-38.577-229.517,0l0,0c0,0-33.607-30.755-55.614-24.461L0,317.793V512h512V317.793L426.372,293.332z"/>
<path style="fill:#F59A9A;" d="M0,462.813V512h512V317.793l-31.647-9.039C348.937,453.085,111.96,465.717,0,462.813z"/>
<path style="fill:#E6E6E6;" d="M206.645,128.883L206.645,128.883c-8.21-3.505-17.046-5.314-25.971-5.297l0,0
	c-36.405,0-65.916,29.511-65.916,65.916l0,0l0,0c0,38.135,6.859,75.961,20.25,111.669l6.232,16.622l7.292,131.213
	c0.865,15.528,13.709,27.683,29.263,27.683l0,0c14.504,0,26.827-10.62,28.981-24.964l18.812-125.352
	c2.242-15.069,15.175-26.227,30.411-26.236l0,0c15.219,0,28.151,11.14,30.411,26.191l18.812,125.352
	c2.127,14.362,14.46,25,28.981,25.009l0,0c15.554,0,28.398-12.156,29.263-27.683l7.292-131.213l6.232-16.622
	c13.391-35.708,20.25-73.534,20.25-111.669l0,0c0-36.405-29.511-65.916-65.916-65.916l0,0c-8.925-0.018-17.761,1.792-25.971,5.297
	l0,0C273.841,142.389,238.159,142.389,206.645,128.883z"/>
<path style="fill:#DEDEDE;" d="M369.24,135.636c-51.447,105.825-161.518,178.759-226.233,214.413l5.5,98.957
	c0.856,16.163,14.654,28.575,30.817,27.719c13.93-0.733,25.415-11.193,27.445-25l18.812-125.352
	c2.534-16.799,18.202-28.354,35.001-25.821c13.338,2.013,23.808,12.482,25.821,25.821l18.812,125.352
	c2.357,16.013,17.249,27.083,33.262,24.726c13.806-2.03,24.267-13.515,25-27.445l7.283-131.213l6.232-16.622
	c13.391-35.708,20.25-73.534,20.25-111.669C397.241,168.06,386.798,147.95,369.24,135.636z"/>
<g>
	<path style="fill:#F56464;" d="M326.374,285.308C301.038,246.44,249,235.467,210.132,260.802
		c-9.781,6.374-18.123,14.724-24.505,24.505l-1.024-2.737c-11.176-29.758-16.896-61.281-16.878-93.069c0-7.15,5.8-12.95,12.95-12.95
		c1.757,0,3.496,0.362,5.111,1.05c44.835,19.209,95.594,19.209,140.429,0c6.568-2.825,14.186,0.212,17.011,6.788
		c0.689,1.615,1.051,3.354,1.051,5.111c0.018,31.788-5.703,63.311-16.878,93.069L326.374,285.308z"/>
	<polygon style="fill:#F56464;" points="185.37,512 167.733,512 177.302,252.381 194.94,253.06 	"/>
	<polygon style="fill:#F56464;" points="326.418,512 316.337,245.645 333.974,244.966 344.126,512 	"/>
</g>
<rect x="273.655" style="fill:#4398D1;" width="70.621" height="88.276"/>
<rect x="300.138" y="88.276" style="fill:#3570AB;" width="17.655" height="141.241"/>
<rect x="344.276" y="26.483" style="fill:#4398D1;" width="167.724" height="35.31"/>
<rect x="344.276" y="26.483" style="fill:#3E8CC7;" width="26.483" height="35.31"/>
<g>
</g>
<g>
</g>
<g>
</g>
<g>
</g>
<g>
</g>
<g>
</g>
<g>
</g>
<g>
</g>
<g>
</g>
<g>
</g>
<g>
</g>
<g>
</g>
<g>
</g>
<g>
</g>
<g>
</g>
</svg>
