<?xml version="1.0" encoding="iso-8859-1"?>
<!-- Generator: Adobe Illustrator 19.0.0, SVG Export Plug-In . SVG Version: 6.00 Build 0)  -->
<svg width="51px" height="51px" version="1.1" id="Capa_1" xmlns="http://www.w3.org/2000/svg" xmlns:xlink="http://www.w3.org/1999/xlink" x="0px" y="0px"
	 viewBox="0 0 480.208 480.208" style="enable-background:new 0 0 480.208 480.208;" xml:space="preserve">
<path style="opacity:0.8;fill:#F0F0F0;enable-background:new    ;" d="M125.944,105.376c-12.704-8.12-41.272-9.168-64.784-9.168
	c-18.416,0-32.896,2.392-47.992,14.16c-1.48,1.072-3.024,2.856-7.576,8.416c-1.368,1.672-2.592,3.192-3.136,3.76
	c-1.512,1.496-2.352,3.536-2.352,5.664v222.208c0,1.168,0.256,2.312,0.736,3.352c1.776,4.664,18.16,54.672,28.768,87.224
	c2.984,10.888,11.216,19.384,21.176,22.072c2.448,0.768,4.696,1.144,6.896,1.144c0.224,0.008,0.504,0,0.72,0h26.064
	c0.208,0,0.52,0,0.76,0c2.376,0,4.792-0.424,7.048-1.2c11.136-3.232,19.432-12.776,21.648-24.912
	c3.856-21.08,8.992-52.552,14.944-89.008l6.872-41.968c17.96-28.712,24.368-71.04,24.368-99.176
	C160.104,165.288,160.104,124.992,125.944,105.376z"/>
<path style="fill:#B6E8F2;" d="M398.64,243.6c-1.496-2.128-3.936-3.392-6.536-3.392h-144c-2.6,0-5.04,1.264-6.536,3.392
	c-1.504,2.128-1.864,4.848-0.992,7.304l36.208,101.384c3.4,9.52,12.48,15.92,22.592,15.92h41.456c10.12,0,19.192-6.4,22.592-15.928
	l36.208-101.384C400.512,248.448,400.144,245.728,398.64,243.6z"/>
<path style="fill:#85D9E9;" d="M430.912,212c-1.464-2.352-4.032-3.792-6.808-3.792h-208c-2.776,0-5.344,1.44-6.808,3.792
	c-1.464,2.36-1.592,5.304-0.352,7.784l16,32c1.36,2.712,4.128,4.424,7.16,4.424h176c3.032,0,5.8-1.712,7.16-4.424l16-32
	C432.504,217.304,432.368,214.36,430.912,212z"/>
<path style="fill:#F0F0F0;" d="M434.544,6.776c-12.176-7.192-35.416-6.928-52.4-6.688c-2.488,0.032-4.8,0.056-6.856,0.056
	c-19.488,0-35.368,4.784-49.776,14.904c-1.616,1.064-3.16,2.208-4.968,3.576l-0.416,0.312c-1.76-1.36-3.504-2.608-5.216-3.744
	C300.296,4.928,284.416,0.144,264.928,0.144c-2.064,0-4.376-0.024-6.856-0.056c-16.984-0.216-40.216-0.496-51.984,6.464
	c-29.656,15.232-45.984,49.912-45.984,97.656c0,29.864,15.48,65.032,31.128,87.288c0.96,3.904,2.696,8.296,4.52,12.904
	c1.912,4.84,3.896,9.84,4.472,13.16c0.656,3.84,3.984,6.648,7.88,6.648h224c3.896,0,7.224-2.808,7.88-6.656
	c0.568-3.312,2.552-8.32,4.472-13.16c1.832-4.608,3.56-9,4.52-12.904c15.648-22.248,31.128-57.416,31.128-87.28
	C480.104,56.464,463.776,21.784,434.544,6.776z M324.6,25.576L324.6,25.576L324.6,25.576L324.6,25.576z"/>
<g>
	<path style="fill:#FCFCFC;" d="M296.104,104.208c-4.424,0-8-3.584-8-8c0-55.664,36.664-96.064,87.176-96.064c4.424,0,8,3.584,8,8
		s-3.576,8-8,8c-41.904,0-71.176,32.92-71.176,80.064C304.104,100.624,300.528,104.208,296.104,104.208z"/>
	<path style="fill:#FCFCFC;" d="M296.104,144.208c-4.424,0-8-3.584-8-8v-8c0-4.416,3.576-8,8-8s8,3.584,8,8v8
		C304.104,140.624,300.528,144.208,296.104,144.208z"/>
</g>
<g>
	<path style="fill:#85D9E9;" d="M384.104,296.208h-128c-4.424,0-8-3.584-8-8s3.576-8,8-8h128c4.424,0,8,3.584,8,8
		S388.528,296.208,384.104,296.208z"/>
	<path style="fill:#85D9E9;" d="M376.104,328.208h-112c-4.424,0-8-3.584-8-8s3.576-8,8-8h112c4.424,0,8,3.584,8,8
		S380.528,328.208,376.104,328.208z"/>
</g>
<path style="fill:#F5B9B0;" d="M456.104,320.208h-32c-3.032,0-5.8,1.712-7.16,4.424l-13.784,27.576h-11.056
	c-3.384,0-6.4,2.128-7.528,5.312l-38.112,106.688h-52.72L255.632,357.52c-1.128-3.184-4.144-5.312-7.528-5.312h-11.056
	l-13.792-27.576c-1.352-2.712-4.12-4.424-7.152-4.424h-208c-4.424,0-8,3.584-8,8v144c0,4.416,3.576,8,8,8h464c4.424,0,8-3.584,8-8
	v-128C480.104,330.976,469.336,320.208,456.104,320.208z"/>
<g>
	<path style="fill:#A87168;" d="M264.104,408.208h-24c-4.424,0-8-3.584-8-8s3.576-8,8-8h24c4.424,0,8,3.584,8,8
		S268.528,408.208,264.104,408.208z"/>
	<path style="fill:#A87168;" d="M408.104,408.208h-32c-4.424,0-8-3.584-8-8s3.576-8,8-8h32c4.424,0,8,3.584,8,8
		S412.528,408.208,408.104,408.208z"/>
	<path style="fill:#A87168;" d="M392.104,424.208h-24h-96h-24c-4.424,0-8,3.584-8,8s3.576,8,8,8h18.584l13.992,34.976
		c1.216,3.032,4.152,5.024,7.424,5.024h64c3.272,0,6.208-1.992,7.432-5.024l13.984-34.976h18.584c4.424,0,8-3.584,8-8
		S396.528,424.208,392.104,424.208z"/>
</g>
<g>
</g>
<g>
</g>
<g>
</g>
<g>
</g>
<g>
</g>
<g>
</g>
<g>
</g>
<g>
</g>
<g>
</g>
<g>
</g>
<g>
</g>
<g>
</g>
<g>
</g>
<g>
</g>
<g>
</g>
</svg>
