<?xml version="1.0" encoding="iso-8859-1"?>
<!-- Generator: Adobe Illustrator 19.0.0, SVG Export Plug-In . SVG Version: 6.00 Build 0)  -->
<svg version="1.1" id="Capa_1" xmlns="http://www.w3.org/2000/svg" xmlns:xlink="http://www.w3.org/1999/xlink" x="0px" y="0px"
	 viewBox="0 0 480 480" style="enable-background:new 0 0 480 480;" xml:space="preserve">
<rect x="280" y="56" style="fill:#FAFAFA;" width="96" height="64"/>
<path style="fill:#85D9E9;" d="M448,200v-46.712c0-8.616-4.616-16.568-12.096-20.84l-44.24-25.28
	c-3.632-2.08-7.736-3.168-11.912-3.168H276.264c-4.184,0-8.288,1.088-11.92,3.168l-44.256,25.28
	C212.616,136.712,208,144.664,208,153.264V200c0,10.432,6.688,19.328,16,22.632v146.736c-9.312,3.304-16,12.2-16,22.632v72
	c0,8.84,7.16,16,16,16h48c2.12,0,4.152-0.84,5.656-2.344L291.312,464h73.376l13.656,13.656C379.848,479.16,381.88,480,384,480h48
	c8.84,0,16-7.16,16-16v-72c0-10.432-6.688-19.328-16-22.632V222.632C441.312,219.328,448,210.432,448,200z"/>
<g>
	<path style="fill:#D6F2F8;" d="M376,0h-96c-8.84,0-16,7.16-16,16v40c0,8.84,7.16,16,16,16h96c8.84,0,16-7.16,16-16V16
		C392,7.16,384.84,0,376,0z"/>
	<path style="fill:#D6F2F8;" d="M424,384H312c-4.424,0-8-3.576-8-8s3.576-8,8-8h104V224h-48c-4.424,0-8-3.576-8-8s3.576-8,8-8h56
		c4.424,0,8,3.576,8,8v160C432,380.424,428.424,384,424,384z"/>
	<path style="fill:#D6F2F8;" d="M264,384h-32c-4.424,0-8-3.576-8-8V216c0-4.424,3.576-8,8-8h56c4.424,0,8,3.576,8,8s-3.576,8-8,8
		h-48v144h24c4.424,0,8,3.576,8,8S268.424,384,264,384z"/>
</g>
<path style="fill:#F0F0F0;" d="M360,240h-64c-13.232,0-24,11.424-24,25.456v24.384c0,2.2,0.408,4.352,1.2,6.36l17.896,45.584
	c2.232,5.656,7.232,9.584,13.064,10.248c5.664,0.576,11.368-1.968,14.736-6.856l8.904-13.52l9.304,13.528
	c3.016,4.384,7.88,6.944,12.992,6.944c0.576,0,1.16-0.032,1.736-0.096c5.832-0.664,10.832-4.592,13.064-10.264l17.24-43.896
	c1.24-3.12,1.864-6.424,1.864-9.824v-22.592C384,251.424,373.232,240,360,240z"/>
<path style="fill:#FAFAFA;" d="M328,280c-4.424,0-8-3.576-8-8c0-17.944,10.536-32,24-32c4.424,0,8,3.576,8,8s-3.576,8-8,8
	c-3.264,0-8,6.232-8,16C336,276.424,332.424,280,328,280z"/>
<path d="M104,448c-4.424,0-8-3.576-8-8v-16c0-4.424,3.576-8,8-8s8,3.576,8,8v16C112,444.424,108.424,448,104,448z"/>
<path style="fill:#D6F2F8;" d="M173.896,226.592C172.384,224.936,170.24,224,168,224H40c-2.24,0-4.384,0.936-5.896,2.592
	s-2.264,3.864-2.072,6.104L48.664,424h110.664l16.632-191.304C176.168,230.464,175.416,228.248,173.896,226.592z"/>
<path style="fill:#9DE1ED;" d="M169.952,301.848c0.136-2.176-0.624-4.32-2.112-5.92c-1.504-1.624-2.92-3.336-4.352-5.048
	c-7.008-8.408-15.744-18.88-32.832-18.88s-25.808,10.472-32.824,18.872C90.848,299.256,86.456,304,77.312,304
	c-9.152,0-13.552-4.744-20.544-13.136c-1.952-2.344-3.912-4.68-6.008-6.84c-2.344-2.416-5.936-3.088-8.984-1.76
	c-3.064,1.36-4.96,4.48-4.752,7.824l10.992,174.416c0.008,0.08,0.048,0.144,0.056,0.224C48.456,473.2,55.424,480,64,480h80
	c8.576,0,15.544-6.808,15.928-15.288c0.008-0.08,0.048-0.144,0.056-0.216L169.952,301.848z"/>
<g>
	<path style="fill:#D6F2F8;" d="M45.968,432l2.048,32.496c0.008,0.08,0.048,0.144,0.056,0.224C48.456,473.2,55.424,480,64,480h80
		c8.576,0,15.544-6.808,15.928-15.288c0.008-0.08,0.048-0.144,0.056-0.216L161.976,432H45.968z"/>
	<path style="fill:#D6F2F8;" d="M168,48h-8v-8c0-4.424-3.576-8-8-8s-8,3.576-8,8v8h-8c-4.424,0-8,3.576-8,8s3.576,8,8,8h8v8
		c0,4.424,3.576,8,8,8s8-3.576,8-8v-8h8c4.424,0,8-3.576,8-8S172.424,48,168,48z"/>
</g>
<g>
	<path style="fill:#85D9E9;" d="M72,128h-8v-8c0-4.424-3.576-8-8-8s-8,3.576-8,8v8h-8c-4.424,0-8,3.576-8,8s3.576,8,8,8h8v8
		c0,4.424,3.576,8,8,8s8-3.576,8-8v-8h8c4.424,0,8-3.576,8-8S76.424,128,72,128z"/>
	<path style="fill:#85D9E9;" d="M312,32c-4.424,0-8-3.576-8-8V8c0-4.424,3.576-8,8-8s8,3.576,8,8v16C320,28.424,316.424,32,312,32z"
		/>
	<path style="fill:#85D9E9;" d="M344,32c-4.424,0-8-3.576-8-8V8c0-4.424,3.576-8,8-8s8,3.576,8,8v16C352,28.424,348.424,32,344,32z"
		/>
</g>
<g>
	<path style="fill:#D6F2F8;" d="M392,176h-24c-4.424,0-8-3.576-8-8s3.576-8,8-8h24c4.424,0,8,3.576,8,8S396.424,176,392,176z"/>
	<path style="fill:#D6F2F8;" d="M336,176h-8c-4.424,0-8-3.576-8-8s3.576-8,8-8h8c4.424,0,8,3.576,8,8S340.424,176,336,176z"/>
</g>
<g>
</g>
<g>
</g>
<g>
</g>
<g>
</g>
<g>
</g>
<g>
</g>
<g>
</g>
<g>
</g>
<g>
</g>
<g>
</g>
<g>
</g>
<g>
</g>
<g>
</g>
<g>
</g>
<g>
</g>
</svg>
