<?xml version="1.0" encoding="iso-8859-1"?>
<!-- Generator: Adobe Illustrator 19.0.0, SVG Export Plug-In . SVG Version: 6.00 Build 0)  -->
<svg version="1.1" id="Capa_1" xmlns="http://www.w3.org/2000/svg" xmlns:xlink="http://www.w3.org/1999/xlink" x="0px" y="0px"
	 viewBox="0 0 480 480" style="enable-background:new 0 0 480 480;" xml:space="preserve">
<path style="fill:#FCEAE7;" d="M211.98,224.512c0.144-2.208-0.632-4.376-2.152-5.984c-1.512-1.616-3.624-2.528-5.832-2.528h-176
	c-2.208,0-4.32,0.912-5.832,2.528c-1.512,1.608-2.288,3.776-2.152,5.984L33.396,432h165.2L211.98,224.512z"/>
<path style="fill:#FADCD7;" d="M33.396,432l2.128,33.032C36.076,473.432,43.092,480,51.5,480l0,0h0.496h128h0.496l0,0
	c8.408,0,15.424-6.568,15.968-14.968L198.596,432H33.396z"/>
<path style="fill:#AD3C2B;" d="M131.996,96h-32c-4.424,0-8,3.576-8,8v32c0,4.424,3.576,8,8,8h32c4.424,0,8-3.576,8-8v-32
	C139.996,99.576,136.42,96,131.996,96z"/>
<circle style="fill:#E65039;" cx="115.996" cy="56" r="56"/>
<g>
	<path style="fill:#AD3C2B;" d="M99.996,56c-2.168,0-4.168-0.808-5.68-2.32c-1.52-1.52-2.32-3.52-2.32-5.68
		c0-2.168,0.872-4.168,2.32-5.68c2.232-2.24,5.76-2.96,8.72-1.68c0.96,0.4,1.832,0.96,2.64,1.68c1.44,1.512,2.32,3.512,2.32,5.68
		c0,2.16-0.808,4.16-2.32,5.68C104.156,55.192,102.156,56,99.996,56z"/>
	<path style="fill:#AD3C2B;" d="M131.996,56c-2.168,0-4.168-0.808-5.68-2.32c-0.72-0.808-1.28-1.68-1.68-2.64
		c-0.48-0.96-0.64-2-0.64-3.04c0-2.08,0.872-4.168,2.32-5.68c2.96-2.96,8.32-2.96,11.36,0c1.44,1.512,2.32,3.6,2.32,5.68
		c0,1.04-0.24,2.08-0.64,3.04s-0.96,1.832-1.68,2.64C136.156,55.192,134.156,56,131.996,56z"/>
	<path style="fill:#AD3C2B;" d="M115.996,80c-2.168,0-4.168-0.808-5.68-2.32c-0.72-0.808-1.28-1.68-1.68-2.64s-0.64-2-0.64-3.04
		c0-2.08,0.872-4.168,2.32-5.68c0.4-0.32,0.8-0.72,1.192-0.96c0.488-0.32,0.96-0.56,1.448-0.72c0.48-0.24,0.96-0.4,1.44-0.488
		c2.64-0.552,5.44,0.32,7.28,2.168c1.44,1.512,2.32,3.6,2.32,5.68c0,1.04-0.168,2.08-0.64,3.04c-0.4,0.96-0.96,1.832-1.68,2.64
		C120.156,79.192,118.156,80,115.996,80z"/>
</g>
<rect x="91.996" y="128" style="fill:#E65039;" width="48" height="48"/>
<path style="fill:#AD3C2B;" d="M158.116,174.12c-0.952-8.048-7.784-14.12-15.896-14.12H89.764c-8.112,0-14.936,6.072-15.888,14.112
	l-5.832,48.944c-0.264,2.272,0.448,4.544,1.96,6.256c1.528,1.712,3.704,2.688,5.992,2.688h80c2.288,0,4.464-0.976,5.984-2.688
	c1.512-1.712,2.224-3.984,1.96-6.256L158.116,174.12z"/>
<path style="fill:#E65039;" d="M155.996,216h-80c-4.416,0-8,3.584-8,8v192c0,8.84,7.16,16,16,16h64c8.84,0,16-7.16,16-16V224
	C163.996,219.584,160.412,216,155.996,216z"/>
<path d="M115.996,296c-4.424,0-8-3.576-8-8v-32c0-4.424,3.576-8,8-8c4.424,0,8,3.576,8,8v32C123.996,292.424,120.42,296,115.996,296
	z"/>
<g>
	<path style="fill:#AD3C2B;" d="M115.996,296c-4.424,0-8-3.576-8-8v-32c0-4.424,3.576-8,8-8c4.424,0,8,3.576,8,8v32
		C123.996,292.424,120.42,296,115.996,296z"/>
	<rect x="67.996" y="312" style="fill:#AD3C2B;" width="96" height="48"/>
</g>
<rect x="67.996" y="344" style="fill:#FADCD7;" width="96" height="48"/>
<path style="fill:#AE5345;" d="M115.996,192c-4.424,0-8-3.576-8-8v-16c0-4.424,3.576-8,8-8c4.424,0,8,3.576,8,8v16
	C123.996,188.424,120.42,192,115.996,192z"/>
<g>
	<polygon style="fill:#85D9E9;" points="451.996,8 259.996,8 262.78,72 449.212,72 	"/>
	<path style="fill:#85D9E9;" d="M457.78,2.472C456.26,0.888,454.172,0,451.996,0h-192c-2.176,0-4.264,0.888-5.784,2.472
		c-1.504,1.576-2.304,3.696-2.208,5.872l16,368c0.184,4.28,3.712,7.656,7.992,7.656h160c4.28,0,7.808-3.376,7.992-7.656l16-368
		C460.084,6.168,459.284,4.048,457.78,2.472z"/>
</g>
<path style="fill:#D6F2F8;" d="M457.78,2.472C456.26,0.888,454.172,0,451.996,0h-192c-2.176,0-4.264,0.888-5.784,2.472
	c-1.504,1.576-2.304,3.696-2.208,5.872l2.784,64c0.184,4.28,3.704,7.656,7.992,7.656h186.44c4.28,0,7.808-3.376,7.992-7.656
	l2.784-64C460.084,6.168,459.284,4.048,457.78,2.472z"/>
<path style="fill:#64A3AF;" d="M442.044,370.76c-1.528-1.752-3.728-2.76-6.048-2.76h-160c-2.32,0-4.52,1.008-6.048,2.76
	c-1.512,1.752-2.2,4.08-1.872,6.376l8,56c0.56,3.936,3.936,6.864,7.92,6.864h144c3.984,0,7.36-2.928,7.92-6.864l8-56
	C444.244,374.832,443.556,372.504,442.044,370.76z"/>
<path style="fill:#85D9E9;" d="M434.18,426.928c-1.52-1.848-3.784-2.928-6.184-2.928h-144c-2.4,0-4.664,1.08-6.184,2.928
	c-1.512,1.848-2.128,4.288-1.656,6.64l6.712,33.576c1.496,7.448,8.088,12.856,15.68,12.856h114.888
	c7.592,0,14.184-5.408,15.688-12.856l6.712-33.568C436.308,431.216,435.7,428.784,434.18,426.928z"/>
<path style="fill:#D6F2F8;" d="M379.996,400h-48c-8.824,0-16,7.176-16,16v16c0,4.424,3.576,8,8,8h64c4.424,0,8-3.576,8-8v-16
	C395.996,407.176,388.82,400,379.996,400z"/>
<g>
	<path style="fill:#85D9E9;" d="M307.996,32c-4.424,0-8-3.576-8-8V8c0-4.424,3.576-8,8-8s8,3.576,8,8v16
		C315.996,28.424,312.42,32,307.996,32z"/>
	<path style="fill:#85D9E9;" d="M355.996,32c-4.424,0-8-3.576-8-8V8c0-4.424,3.576-8,8-8s8,3.576,8,8v16
		C363.996,28.424,360.42,32,355.996,32z"/>
	<path style="fill:#85D9E9;" d="M403.996,32c-4.424,0-8-3.576-8-8V8c0-4.424,3.576-8,8-8s8,3.576,8,8v16
		C411.996,28.424,408.42,32,403.996,32z"/>
</g>
<path style="fill:#D6F2F8;" d="M387.996,144h-64c-13.232,0-24,11.424-24,25.456v24.384c0,2.2,0.408,4.352,1.2,6.36l17.896,45.584
	c2.232,5.656,7.232,9.584,13.064,10.248c5.688,0.584,11.368-1.968,14.736-6.856l8.904-13.52l9.304,13.528
	c3.016,4.384,7.88,6.944,12.992,6.944c0.576,0,1.16-0.032,1.736-0.096c5.832-0.664,10.832-4.592,13.064-10.264l17.24-43.896
	c1.24-3.12,1.864-6.424,1.864-9.824v-22.592C411.996,155.424,401.228,144,387.996,144z"/>
<path style="fill:#85D9E9;" d="M355.996,184c-4.424,0-8-3.576-8-8c0-17.944,10.536-32,24-32c4.424,0,8,3.576,8,8s-3.576,8-8,8
	c-3.264,0-8,6.232-8,16C363.996,180.424,360.42,184,355.996,184z"/>
<g>
	<path style="fill:#D6F2F8;" d="M387.996,328h-64c-4.424,0-8-3.576-8-8s3.576-8,8-8h64c4.424,0,8,3.576,8,8S392.42,328,387.996,328z
		"/>
	<path style="fill:#D6F2F8;" d="M379.996,296h-48c-4.424,0-8-3.576-8-8s3.576-8,8-8h48c4.424,0,8,3.576,8,8S384.42,296,379.996,296z
		"/>
</g>
<g>
</g>
<g>
</g>
<g>
</g>
<g>
</g>
<g>
</g>
<g>
</g>
<g>
</g>
<g>
</g>
<g>
</g>
<g>
</g>
<g>
</g>
<g>
</g>
<g>
</g>
<g>
</g>
<g>
</g>
</svg>
