<?xml version="1.0" encoding="iso-8859-1"?>
<!-- Generator: Adobe Illustrator 19.0.0, SVG Export Plug-In . SVG Version: 6.00 Build 0)  -->
<svg version="1.1" id="Capa_1" xmlns="http://www.w3.org/2000/svg" xmlns:xlink="http://www.w3.org/1999/xlink" x="0px" y="0px"
	 viewBox="0 0 480 480" style="enable-background:new 0 0 480 480;" xml:space="preserve">
<g style="opacity:0.6;">
	<path style="fill:#85D9E9;" d="M371.576,445.264C367.488,437.08,359.264,432,350.112,432H318.68l-14.808-81.432
		c-0.696-3.8-4.008-6.568-7.872-6.568H184c-3.864,0-7.176,2.768-7.872,6.568L161.328,432h-31.432
		c-9.152,0-17.376,5.08-21.472,13.264c-3.744,7.496-3.352,16.224,1.048,23.352S121.512,480,129.888,480h220.216
		c8.376,0,16.008-4.256,20.416-11.384S375.328,452.76,371.576,445.264z"/>
	<g>
		<path style="fill:#B6E8F2;" d="M456,0H24C10.768,0,0,10.768,0,24v264c0,4.416,3.584,8,8,8h464c4.416,0,8-3.584,8-8V24
			C480,10.768,469.232,0,456,0z"/>
		<path style="fill:#B6E8F2;" d="M232,448h-64c-4.416,0-8-3.584-8-8s3.584-8,8-8h64c4.416,0,8,3.584,8,8S236.416,448,232,448z"/>
		<path style="fill:#B6E8F2;" d="M312,448h-32c-4.416,0-8-3.584-8-8s3.584-8,8-8h32c4.416,0,8,3.584,8,8S316.416,448,312,448z"/>
	</g>
	<path style="fill:#85D9E9;" d="M472,280H8c-4.416,0-8,3.584-8,8v48c0,13.232,10.768,24,24,24h432c13.232,0,24-10.768,24-24v-48
		C480,283.584,476.416,280,472,280z"/>
	<path style="fill:#B6E8F2;" d="M256,328h-32c-4.416,0-8-3.584-8-8s3.584-8,8-8h32c4.416,0,8,3.584,8,8S260.416,328,256,328z"/>
</g>
<g>
	<path style="fill:#FFFFFF;" d="M306.248,59.2c-7.144-4.216-24.088-3.312-33.12-3.312c-10.472,0-19.224,2.528-27.24,8.16l0,0
		c-0.88,0.576-1.72,1.208-2.56,1.84c-0.208,0.152-0.416,0.304-0.616,0.464c-0.928,0.72-1.824,1.48-2.704,2.264
		c-1.848-1.656-3.8-3.2-5.88-4.568c-1.496-1.048-3.024-1.952-4.576-2.792c-0.256-0.136-0.512-0.28-0.768-0.416
		c-1.568-0.808-3.168-1.512-4.816-2.112c-0.112-0.04,1.56-0.08,1.448-0.12c-3.528-1.264-9.416-2.064-9.416-2.44v0.04
		c0-0.112-7.936-0.208-7.936-0.208c-0.4,0-0.224-0.08-0.632-0.08c-4.208,0-7.432-0.16-15.432,0.064c0,0-15.072,1.864-15.432,1.992
		c-1.04,0.352-2,0.744-2.808,1.224c-18.264,9.384-23.184,30.032-23.184,53c0,16.08,6.592,39.168,16.56,53
		c0.776,4.24,11.24,58.72,13.976,72.216c1.024,5.04,4.84,8.864,9.632,10.12c0.92,0.28,1.88,0.48,2.888,0.48
		c0.072,0,0.144-0.016,0.216-0.024c0.08,0,0.16,0.024,0.248,0.024h15.672c0.08,0,0.16-0.016,0.24-0.016
		c0.064,0,0.128,0.016,0.192,0.016c0.944,0,1.84-0.176,2.704-0.416c4.472-1.096,8.16-4.424,9.536-8.976l11.16-42.992
		c1.72-6.616,11.112-6.616,12.824,0l11.16,42.992c1.384,4.544,5.072,7.88,9.536,8.976c0.856,0.224,1.744,0.4,2.688,0.4
		c0.064,0,0.128-0.016,0.192-0.016c0.08,0,0.16,0.016,0.24,0.016h15.672c0.08,0,0.16-0.016,0.248-0.024
		c0.072,0,0.144,0.024,0.216,0.024c1.016,0,1.968-0.2,2.888-0.48c4.792-1.256,8.608-5.08,9.632-10.12
		c3.176-15.64,8.624-43.056,13.736-70.904l0,0c0.08-0.44,0.16-0.872,0.24-1.312c9.976-13.832,16.56-36.912,16.56-53
		C329.432,89.224,324.512,68.576,306.248,59.2z"/>
	<path style="fill:#FFFFFF;" d="M224,104c0-31.04,18-47.28,54.416-48.08"/>
	<polyline style="fill:#FFFFFF;" points="280,184 358.544,184 376,160 	"/>
	<polyline style="fill:#FFFFFF;" points="104,80 120,104 184,104 	"/>
</g>
<path style="fill:#85D9E9;" d="M408,0H72c-4.416,0-8,3.584-8,8v280c0,4.416,3.584,8,8,8h8h328h8v-8V16V8C416,3.584,412.416,0,408,0z
	"/>
<path style="fill:#F0F0F0;" d="M310.096,52.176c-7.488-4.288-19.352-4.504-32.896-4.336l-4.072,0.032
	c-12.216,0-22.632,3.144-31.624,9.472c-0.504,0.328-1,0.672-1.488,1.024c-0.432-0.312-0.864-0.6-1.288-0.872
	c-1.76-1.24-3.56-2.312-5.384-3.296c-0.048-0.024-0.864-0.464-0.912-0.496c-0.392-0.2-0.792-0.392-1.184-0.584
	c-0.848-0.904-1.912-1.624-3.144-2.056c-2.208-0.792-5.208-1.448-7.504-1.936c-0.52-0.112-0.992-0.208-1.368-0.288
	c-1.288-0.56-2.792-0.792-4.248-0.608c-1.88-0.168-4.016-0.2-6.36-0.232c-0.424-0.048-0.832-0.08-1.184-0.08l-3.376-0.024
	c-3.032-0.024-6.392-0.072-13.04,0.152c-15.896,1.968-16.048,2.016-17.008,2.352c-1.696,0.576-3.104,1.2-3.904,1.68
	c-18.528,9.52-27.528,29.184-27.528,60.12c0,18.256,7.096,41.512,17.016,56.168c1.984,10.48,11.192,58.36,13.68,70.632
	c1.616,7.968,7.536,14.2,15.136,16.184c1.8,0.544,3.512,0.816,5.216,0.816c0.144,0.008,0.32,0,0.456,0h15.664
	c0.064,0,0.136,0,0.208,0c1.8,0,3.344-0.224,4.832-0.648c7.264-1.776,13.128-7.304,15.376-14.744L240,202.744l9.92,38.184
	c2.168,7.112,8.024,12.64,15,14.344c1.704,0.488,3.304,0.728,4.896,0.728c0.144,0,0.304,0,0.432,0h15.664
	c0.144,0.008,0.312,0,0.456,0c1.696,0,3.408-0.272,4.92-0.736c7.904-2.072,13.824-8.304,15.44-16.272
	c2.84-14.024,8.4-41.8,13.696-70.656c9.912-14.656,17-37.896,17-56.144C337.432,81.368,328.496,61.728,310.096,52.176z"/>
<g>
	<path style="fill:#FCFCFC;" d="M224,112c-4.416,0-8-3.584-8-8c0-24.96,10.8-54.944,62.24-56.08c4.424-0.12,8.072,3.408,8.176,7.824
		c0.096,4.416-3.408,8.08-7.824,8.176C236.832,64.84,232,87.232,232,104C232,108.416,228.416,112,224,112z"/>
	<path style="fill:#FCFCFC;" d="M224,152c-4.416,0-8-3.584-8-8v-8c0-4.416,3.584-8,8-8s8,3.584,8,8v8
		C232,148.416,228.416,152,224,152z"/>
</g>
<g>
	<path style="fill:#FDC567;" d="M358.544,192H280c-4.416,0-8-3.584-8-8s3.584-8,8-8h74.472l15.056-20.704
		c2.592-3.568,7.608-4.36,11.176-1.76s4.36,7.6,1.76,11.176l-17.456,24C363.512,190.776,361.104,192,358.544,192z"/>
	<path style="fill:#FDC567;" d="M184,112h-64c-2.672,0-5.168-1.336-6.656-3.56l-16-24c-2.448-3.672-1.456-8.648,2.216-11.096
		c3.664-2.464,8.648-1.464,11.096,2.216L124.28,96H184c4.416,0,8,3.584,8,8S188.416,112,184,112z"/>
</g>
<g>
	<path style="fill:#FAFAFA;" d="M112,256h-8c-4.416,0-8-3.584-8-8s3.584-8,8-8h8c4.416,0,8,3.584,8,8S116.416,256,112,256z"/>
	<path style="fill:#FAFAFA;" d="M152,256h-8c-4.416,0-8-3.584-8-8s3.584-8,8-8h8c4.416,0,8,3.584,8,8S156.416,256,152,256z"/>
</g>
<g>
</g>
<g>
</g>
<g>
</g>
<g>
</g>
<g>
</g>
<g>
</g>
<g>
</g>
<g>
</g>
<g>
</g>
<g>
</g>
<g>
</g>
<g>
</g>
<g>
</g>
<g>
</g>
<g>
</g>
</svg>
