<?xml version="1.0" encoding="iso-8859-1"?>
<!-- Generator: Adobe Illustrator 19.0.0, SVG Export Plug-In . SVG Version: 6.00 Build 0)  -->
<svg version="1.1" id="Capa_1" xmlns="http://www.w3.org/2000/svg" xmlns:xlink="http://www.w3.org/1999/xlink" x="0px" y="0px"
	 viewBox="0 0 480 480" style="enable-background:new 0 0 480 480;" xml:space="preserve">
<path style="fill:#85D9E9;" d="M472,0H8C3.584,0,0,3.584,0,8v464c0,4.416,3.584,8,8,8h464c4.416,0,8-3.584,8-8V8
	C480,3.584,476.416,0,472,0z"/>
<path style="fill:#F0F0F0;" d="M321.944,67.592c-8.504-4.888-22.304-5.144-38.072-4.928l-4.824,0.04
	c-14.096,0-26.104,3.624-36.512,10.936c-0.848,0.56-1.664,1.152-2.512,1.776c-0.792-0.576-1.584-1.128-2.352-1.64
	c-2.024-1.416-4.096-2.648-6.528-3.968c-0.064-0.032-0.648-0.344-0.712-0.384c-1.832-0.936-3.696-1.776-5.656-2.536
	c-0.36-0.192-0.744-0.368-1.136-0.504c-3-1.072-7.112-1.784-10.416-2.352c-0.872-0.152-1.64-0.28-2.2-0.392
	c-1.568-0.632-3.488-0.752-5.152-0.304c-13.616-0.848-41.224,1.704-41.528,1.792c-0.04,0.008-4.432,1.392-6.096,2.384
	c-21.32,10.952-31.68,33.712-31.68,69.592c0,21.376,8.336,48.624,19.984,65.656c2.216,11.76,13.272,69.216,16.184,83.544
	c1.792,8.848,8.368,15.776,16.848,17.992c3.56,1.096,7.016,1.44,9.792-0.28h11.88c2.448,1.256,5.528,1.232,8.688,0.32
	c8.216-2.008,14.568-7.976,17.088-16.264l12.784-50.624l13.24,51.008c2.408,7.904,8.92,14.048,16.712,15.952
	c1.896,0.536,3.656,0.8,5.368,0.8c1.44,0,2.824-0.44,4.032-1.192h11.888c2.448,1.264,5.56,1.296,9.032,0.216
	c7.728-2.016,16.408-8.376,18.352-18c0.952-4.704,2.032-10.304,3.24-16.584c3.424-17.792,8.112-42.136,13.992-66.328
	c0.216-0.72,0.328-1.464,0.328-2.224c0-0.008,0-0.008,0-0.016c0-0.128,0-0.256,0-0.384c8-18.616,18.032-45.504,18.032-63.6
	C354.032,102.016,343.232,78.64,321.944,67.592z M243.184,83.04L243.184,83.04L243.184,83.04L243.184,83.04z M226.768,76.544
	L226.768,76.544L226.768,76.544L226.768,76.544z"/>
<g>
	<path style="fill:#FCFCFC;" d="M224,136c-4.416,0-8-3.584-8-8c0-42.288,23.256-64.24,69.112-65.248
		c4.352-0.304,8.072,3.4,8.176,7.824c0.096,4.416-3.408,8.08-7.824,8.168C248.488,79.56,232,94.752,232,128
		C232,132.416,228.416,136,224,136z"/>
	<path style="fill:#FCFCFC;" d="M224,176c-4.416,0-8-3.584-8-8v-8c0-4.416,3.584-8,8-8s8,3.584,8,8v8
		C232,172.416,228.416,176,224,176z"/>
</g>
<g>
	<path style="fill:#FDC567;" d="M404,136c-19.848,0-36,16.152-36,36c0,6.952,2.072,13.392,5.496,18.904L355.368,208H280
		c-4.416,0-8,3.584-8,8s3.584,8,8,8h78.544c2.04,0,4-0.784,5.488-2.176l20.696-19.52C390.32,205.864,396.896,208,404,208
		c19.848,0,36-16.152,36-36S423.848,136,404,136z"/>
	<path style="fill:#FDC567;" d="M184,128h-61.336l-22.896-17.176C107.208,104.224,112,94.704,112,84c0-19.848-16.152-36-36-36
		S40,64.152,40,84s16.152,36,36,36c2.768,0,5.44-0.384,8.032-0.976L115.2,142.4c1.384,1.04,3.072,1.6,4.8,1.6h64
		c4.416,0,8-3.584,8-8S188.416,128,184,128z"/>
</g>
<g>
	<path style="fill:#FCFCFC;" d="M328,432h-64c-4.416,0-8-3.584-8-8s3.584-8,8-8h64c4.416,0,8,3.584,8,8S332.416,432,328,432z"/>
	<path style="fill:#FCFCFC;" d="M432,432h-72c-4.416,0-8-3.584-8-8s3.584-8,8-8h72c4.416,0,8,3.584,8,8S436.416,432,432,432z"/>
</g>
<path style="fill:#FAFAFA;" d="M144,368h-40v-40c0-4.416-3.584-8-8-8c-30.88,0-56,25.12-56,56s25.12,56,56,56s56-25.12,56-56
	C152,371.584,148.416,368,144,368z"/>
<path style="fill:#FDC567;" d="M88,320.56V384h63.44C156.608,346.88,125.12,315.392,88,320.56z"/>
<path style="fill:#FCFCFC;" d="M264.008,400c-2.776,0-5.48-1.448-6.952-4.032c-2.192-3.832-0.856-8.72,2.976-10.912l56-32
	c2.632-1.496,5.888-1.392,8.408,0.288l16.464,10.976l27.944-55.896c1.448-2.896,4.536-4.592,7.72-4.4
	c3.224,0.232,6,2.384,7.024,5.448L405.768,376H432c4.416,0,8,3.584,8,8s-3.584,8-8,8h-32c-3.448,0-6.504-2.2-7.592-5.472
	l-17.888-53.68l-23.36,46.728c-1.024,2.048-2.888,3.568-5.104,4.152c-2.216,0.576-4.584,0.2-6.496-1.072L319.672,369.4
	l-51.704,29.544C266.72,399.664,265.352,400,264.008,400z"/>
<g>
</g>
<g>
</g>
<g>
</g>
<g>
</g>
<g>
</g>
<g>
</g>
<g>
</g>
<g>
</g>
<g>
</g>
<g>
</g>
<g>
</g>
<g>
</g>
<g>
</g>
<g>
</g>
<g>
</g>
</svg>
