<?xml version="1.0" encoding="iso-8859-1"?>
<!-- Generator: Adobe Illustrator 19.0.0, SVG Export Plug-In . SVG Version: 6.00 Build 0)  -->
<svg width="51px" height="51px" version="1.1" id="Capa_1" xmlns="http://www.w3.org/2000/svg" xmlns:xlink="http://www.w3.org/1999/xlink" x="0px" y="0px"
	 viewBox="0 0 480.206 480.206" style="enable-background:new 0 0 480.206 480.206;" xml:space="preserve">
<path style="fill:#B6E8F2;" d="M358.911,339.998c-1.464-2.352-4.032-3.792-6.808-3.792h-224c-2.776,0-5.344,1.44-6.808,3.792
	c-1.456,2.36-1.592,5.304-0.352,7.784l59.576,119.16c4.096,8.184,12.328,13.264,21.472,13.264h76.224
	c9.152,0,17.376-5.08,21.472-13.264l59.576-119.16C360.503,345.302,360.367,342.358,358.911,339.998z"/>
<g>
	<path style="fill:#85D9E9;" d="M390.607,299.558c-1.496-2.104-3.92-3.352-6.504-3.352h-288c-2.584,0-5.008,1.248-6.512,3.352
		s-1.896,4.8-1.056,7.24l10.008,29.184c3.328,9.712,12.448,16.224,22.704,16.224h237.712c10.248,0,19.376-6.512,22.704-16.216
		l10.008-29.184C392.511,304.358,392.111,301.662,390.607,299.558z"/>
	<path style="fill:#85D9E9;" d="M256.103,384.206h-120c-4.416,0-8-3.584-8-8s3.584-8,8-8h120c4.424,0,8,3.584,8,8
		S260.527,384.206,256.103,384.206z"/>
	<path style="fill:#85D9E9;" d="M328.103,416.206h-104c-4.416,0-8-3.584-8-8s3.584-8,8-8h104c4.424,0,8,3.584,8,8
		S332.527,416.206,328.103,416.206z"/>
	<path style="fill:#85D9E9;" d="M312.103,448.206h-144c-4.416,0-8-3.584-8-8s3.584-8,8-8h144c4.424,0,8,3.584,8,8
		S316.527,448.206,312.103,448.206z"/>
	<path style="fill:#85D9E9;" d="M344.103,384.206h-56c-4.424,0-8-3.584-8-8s3.576-8,8-8h56c4.424,0,8,3.584,8,8
		S348.527,384.206,344.103,384.206z"/>
	<path style="fill:#85D9E9;" d="M192.103,416.206h-40c-4.416,0-8-3.584-8-8s3.584-8,8-8h40c4.416,0,8,3.584,8,8
		S196.519,416.206,192.103,416.206z"/>
</g>
<path style="fill:#F0F0F0;" d="M404.175,9.318c-16.784-9.912-49.92-9.504-74.088-9.2c-3.616,0.048-6.984,0.088-9.984,0.088
	c-27.472,0-49.832,6.72-70.184,21.016c-2.272,1.488-4.448,3.112-7.096,5.104l-1.112,0.832c-0.536,0.416-1.072,0.84-1.6,1.272
	c-3.224-2.624-6.424-4.968-9.616-7.064c-20.552-14.44-42.92-21.16-70.392-21.16c-3,0-6.368-0.04-9.992-0.088
	c-24.192-0.312-57.296-0.712-73.664,8.968C35.839,29.95,16.103,74.142,16.103,144.206c0,42.184,17.32,98.16,40.448,131.184
	c1.856,10.152,3.744,20.272,5.624,30.288c0.712,3.784,4.008,6.528,7.864,6.528h340.136c3.848,0,7.16-2.744,7.856-6.528
	c1.88-10.016,3.76-20.136,5.616-30.288c23.144-33.032,40.456-89.008,40.456-131.184C464.103,74.15,444.359,29.95,404.175,9.318z"/>
<g>
	<path style="fill:#FCFCFC;" d="M200.103,144.206c-4.416,0-8-3.584-8-8c0-77.528,55.024-136,128-136c4.424,0,8,3.584,8,8
		s-3.576,8-8,8c-63.848,0-112,51.592-112,120C208.103,140.622,204.519,144.206,200.103,144.206z"/>
	<path style="fill:#FCFCFC;" d="M200.103,216.206c-4.416,0-8-3.584-8-8v-24c0-4.416,3.584-8,8-8s8,3.584,8,8v24
		C208.103,212.622,204.519,216.206,200.103,216.206z"/>
</g>
<path style="fill:#85D9E9;" d="M411.935,121.19l-23.8-13.016l-13.024-23.808c-2.8-5.128-11.232-5.128-14.032,0l-13.024,23.808
	l-23.8,13.016c-2.56,1.4-4.152,4.088-4.152,7.016c0,2.928,1.592,5.616,4.168,7.016l23.8,13.016l13.024,23.808
	c1.392,2.56,4.088,4.16,7.008,4.16s5.616-1.6,7.016-4.16l13.024-23.808l23.8-13.016c2.568-1.4,4.16-4.088,4.16-7.016
	C416.103,125.278,414.511,122.59,411.935,121.19z"/>
<g>
</g>
<g>
</g>
<g>
</g>
<g>
</g>
<g>
</g>
<g>
</g>
<g>
</g>
<g>
</g>
<g>
</g>
<g>
</g>
<g>
</g>
<g>
</g>
<g>
</g>
<g>
</g>
<g>
</g>
</svg>
