<?xml version="1.0" encoding="iso-8859-1"?>
<!-- Generator: Adobe Illustrator 19.0.0, SVG Export Plug-In . SVG Version: 6.00 Build 0)  -->
<svg version="1.1" id="Capa_1" xmlns="http://www.w3.org/2000/svg" xmlns:xlink="http://www.w3.org/1999/xlink" x="0px" y="0px"
	 viewBox="0 0 480 480" style="enable-background:new 0 0 480 480;" xml:space="preserve">
<circle style="fill:#85D9E9;" cx="379.998" cy="104" r="96"/>
<path style="fill:#E65039;" d="M292.246,177.648c4.768-4.392,7.752-10.68,7.752-17.648v-16c0-7.096-3.096-13.48-8-17.872V88
	c0-48.52-39.48-88-88-88h-48c-48.52,0-88,39.48-88,88v38.128c-4.904,4.392-8,10.776-8,17.872v16c0,6.968,2.984,13.256,7.752,17.648
	L52.054,311.064c-0.328,2.776,0.816,5.512,3.008,7.232c2.192,1.712,5.128,2.168,7.752,1.192l64-24
	c1.688-0.632,3.12-1.832,4.048-3.376L152.526,256h54.936l21.672,36.12c0.928,1.544,2.36,2.744,4.048,3.376l64,24
	c0.92,0.336,1.872,0.504,2.816,0.504c1.768,0,3.504-0.584,4.936-1.704c2.192-1.72,3.336-4.464,3.008-7.232L292.246,177.648z"/>
<path style="fill:#85D9E9;" d="M333.374,328.08c-1.36-8.624-7.304-15.832-15.504-18.824l-79.136-28.776
	c-4.12-1.496-8.608,0.56-10.184,4.6l-18.752,47.912c-5.864,14.992-19.24,20.336-29.8,20.336s-23.928-5.344-29.8-20.336
	l-18.752-47.912c-1.584-4.04-6.128-6.096-10.184-4.6l-79.136,28.776c-8.2,2.984-14.152,10.192-15.504,18.816l-22.52,142.68
	c-0.368,2.312,0.296,4.672,1.816,6.448s3.744,2.8,6.08,2.8h336c2.336,0,4.56-1.024,6.088-2.808c1.512-1.776,2.176-4.136,1.816-6.448
	L333.374,328.08z"/>
<path style="fill:#FADCD7;" d="M242.854,283.88l-24-40c-1.44-2.4-4.04-3.88-6.856-3.88h-64c-2.816,0-5.416,1.48-6.856,3.88l-24,40
	c-2.008,3.344-1.312,7.648,1.656,10.184l24.76,21.224c10.56,9.056,23.504,13.576,36.448,13.576s25.88-4.52,36.448-13.576
	l24.76-21.224C244.166,291.528,244.862,287.224,242.854,283.88z"/>
<rect x="243.998" y="432" style="fill:#FAFAFA;" width="72" height="16"/>
<path style="fill:#FBE3DF;" d="M283.998,120h-16c-5.904,0-11.008,3.24-13.784,8h-2.216v8v32h-24c-22.056,0-40-17.944-40-40v-8
	c0-4.424-3.576-8-8-8h-72V96h-16v24h-16c-8.84,0-16,7.16-16,16v32c0,8.84,7.16,16,16,16h16c0.296,0,0.576-0.072,0.864-0.088
	c1.992,15.936,7.592,31.208,16.6,44.712C120.886,245.768,140.014,256,160.622,256h41.688c18.76,0,36.176-9.32,46.592-24.936
	l1.624-2.44c9.008-13.504,14.608-28.768,16.6-44.712c0.296,0.016,0.576,0.088,0.872,0.088h16c8.84,0,16-7.16,16-16v-32
	C299.998,127.16,292.838,120,283.998,120z"/>
<g>
	<path style="fill:#FAFAFA;" d="M240.63,281.48c-2.992-2.12-7.048-1.944-9.832,0.456l-24.776,21.224
		c-15.08,12.92-36.96,12.92-52.056,0l-24.768-21.224c-2.792-2.4-6.848-2.568-9.832-0.456c-2.992,2.128-4.16,6.016-2.824,9.44
		l18.752,47.912c7.368,18.824,24.496,30.504,44.704,30.504s37.336-11.688,44.704-30.504l18.752-47.912
		C244.79,287.496,243.622,283.6,240.63,281.48z"/>
	<path style="fill:#FAFAFA;" d="M179.998,400c-2.168,0-4.168-0.808-5.68-2.32c-1.52-1.52-2.32-3.52-2.32-5.68
		c0-2.08,0.872-4.168,2.32-5.68c2.96-2.96,8.4-2.96,11.36,0c1.44,1.512,2.32,3.6,2.32,5.68c0,2.16-0.808,4.16-2.32,5.68
		C184.158,399.192,182.158,400,179.998,400z"/>
	<path style="fill:#FAFAFA;" d="M179.998,432c-2.168,0-4.168-0.808-5.68-2.32c-1.52-1.52-2.32-3.52-2.32-5.68
		c0-1.04,0.24-2.08,0.64-3.04s0.96-1.84,1.68-2.64c2.96-2.96,8.32-2.96,11.36,0c0.72,0.8,1.28,1.68,1.68,2.64s0.64,2,0.64,3.04
		c0,2.16-0.808,4.16-2.32,5.68c-0.808,0.72-1.68,1.28-2.64,1.68S181.038,432,179.998,432z"/>
	<path style="fill:#FAFAFA;" d="M179.998,464c-1.04,0-2.08-0.24-3.04-0.64s-1.84-0.96-2.64-1.68c-1.52-1.52-2.32-3.52-2.32-5.68
		c0-2.08,0.872-4.168,2.32-5.68c2.96-2.96,8.32-2.96,11.36,0c1.44,1.512,2.32,3.6,2.32,5.68c0,2.16-0.808,4.16-2.32,5.68
		C184.158,463.192,182.158,464,179.998,464z"/>
	<path style="fill:#FAFAFA;" d="M411.998,56h-64c-13.232,0-24,11.424-24,25.456v24.384c0,2.2,0.408,4.352,1.2,6.36l17.896,45.584
		c2.232,5.656,7.232,9.584,13.064,10.248c5.672,0.592,11.368-1.976,14.736-6.856l8.904-13.52l9.304,13.528
		c3.016,4.384,7.88,6.944,12.992,6.944c0.576,0,1.16-0.032,1.736-0.096c5.832-0.664,10.832-4.592,13.064-10.264l17.24-43.896
		c1.24-3.12,1.864-6.424,1.864-9.824V81.456C435.998,67.424,425.23,56,411.998,56z"/>
</g>
<path style="fill:#D6F2F8;" d="M379.998,96c-4.424,0-8-3.576-8-8c0-17.944,10.536-32,24-32c4.424,0,8,3.576,8,8s-3.576,8-8,8
	c-3.264,0-8,6.232-8,16C387.998,92.424,384.422,96,379.998,96z"/>
<g>
</g>
<g>
</g>
<g>
</g>
<g>
</g>
<g>
</g>
<g>
</g>
<g>
</g>
<g>
</g>
<g>
</g>
<g>
</g>
<g>
</g>
<g>
</g>
<g>
</g>
<g>
</g>
<g>
</g>
</svg>
