<?xml version="1.0" encoding="iso-8859-1"?>
<!-- Generator: Adobe Illustrator 19.0.0, SVG Export Plug-In . SVG Version: 6.00 Build 0)  -->
<svg version="1.1" id="Capa_1" xmlns="http://www.w3.org/2000/svg" xmlns:xlink="http://www.w3.org/1999/xlink" x="0px" y="0px"
	 viewBox="0 0 480 480" style="enable-background:new 0 0 480 480;" xml:space="preserve">
<path style="fill:#D6F2F8;" d="M348,56h-32c-4.416,0-8,3.576-8,8H116c0-4.424-3.584-8-8-8H76c-13.232,0-24,10.768-24,24v312v64
	c0,13.232,10.768,24,24,24h272c13.232,0,24-10.768,24-24v-64V224V80C372,66.768,361.232,56,348,56z"/>
<path style="fill:#E65039;" d="M300,0H124c-13.232,0-24,10.768-24,24v64c0,4.424,3.584,8,8,8h208c4.416,0,8-3.576,8-8V24
	C324,10.768,313.232,0,300,0z"/>
<circle style="fill:#85D9E9;" cx="364" cy="312" r="64"/>
<g>
	<path style="fill:#FAFAFA;" d="M364,336c-2.112,0-4.152-0.832-5.656-2.344l-16-16c-3.128-3.128-3.128-8.184,0-11.312
		s8.184-3.128,11.312,0l9.48,9.48L381.6,291.2c2.648-3.536,7.664-4.24,11.2-1.6c3.536,2.648,4.248,7.664,1.6,11.192l-24,32
		c-1.392,1.856-3.52,3.016-5.832,3.176C364.376,335.992,364.184,336,364,336z"/>
	<path style="fill:#FAFAFA;" d="M204,368h-96c-4.416,0-8-3.576-8-8s3.584-8,8-8h96c4.416,0,8,3.576,8,8S208.416,368,204,368z"/>
	<path style="fill:#FAFAFA;" d="M268,368h-32c-4.416,0-8-3.576-8-8s3.584-8,8-8h32c4.416,0,8,3.576,8,8S272.416,368,268,368z"/>
	<path style="fill:#FAFAFA;" d="M172,416h-64c-4.416,0-8-3.576-8-8s3.584-8,8-8h64c4.416,0,8,3.576,8,8S176.416,416,172,416z"/>
	<path style="fill:#FAFAFA;" d="M316,416H204c-4.416,0-8-3.576-8-8s3.584-8,8-8h112c4.416,0,8,3.576,8,8S320.416,416,316,416z"/>
</g>
<path style="fill:#AD3C2B;" d="M236,56h-48c-4.416,0-8-3.576-8-8s3.584-8,8-8h48c4.416,0,8,3.576,8,8S240.416,56,236,56z"/>
<path style="fill:#FAFAFA;" d="M290.096,124.176c-7.48-4.28-19.288-4.432-32.888-4.336l-4.08,0.04
	c-12.224,0-22.64,3.152-31.624,9.472c-0.504,0.328-1,0.672-1.488,1.032c-0.44-0.312-0.872-0.608-1.304-0.888
	c-1.752-1.232-3.552-2.304-5.296-3.24l-0.992-0.528c-0.392-0.2-0.784-0.4-1.176-0.584c-0.848-0.904-1.912-1.624-3.152-2.072
	c-2.216-0.792-5.216-1.448-7.512-1.928c-0.52-0.112-0.992-0.2-1.368-0.288c-1.28-0.56-2.8-0.768-4.24-0.608
	c-1.88-0.16-4.016-0.192-6.36-0.224c-0.416-0.056-0.824-0.088-1.176-0.088l-3.392-0.024c-3.032-0.04-6.392-0.08-13.024,0.144
	c-15.896,1.968-16.048,2.024-17.064,2.368c-1.584,0.544-3.032,1.168-3.856,1.672c-18.528,9.512-27.528,29.176-27.528,60.12
	c0,18.248,7.096,41.504,17.016,56.168c1.992,10.512,11.232,58.552,13.68,70.64c1.616,7.952,7.528,14.184,15.136,16.168
	c1.808,0.536,3.52,0.808,5.224,0.808c0.144-0.008,0.312-0.008,0.456,0h15.664c0.056,0,0.12,0,0.192,0
	c1.848,0,3.384-0.216,4.848-0.648c7.272-1.784,13.128-7.312,15.376-14.736L220,274.752l9.92,38.184
	c2.16,7.112,8.016,12.632,14.968,14.328c1.712,0.496,3.32,0.736,4.928,0.736c0.128,0,0.296,0,0.432,0h15.664
	c0.136-0.008,0.304-0.008,0.456,0c1.696,0,3.408-0.272,4.928-0.744c7.904-2.072,13.824-8.304,15.44-16.256
	c2.848-14.072,8.416-41.888,13.696-70.656c9.912-14.656,17-37.904,17-56.152C317.432,153.368,308.488,133.736,290.096,124.176z"/>
<g>
	<path style="fill:#85D9E9;" d="M204,184c-4.416,0-8-3.576-8-8c0-24.96,10.8-54.952,62.24-56.08c4.4-0.2,8.072,3.416,8.176,7.832
		c0.096,4.416-3.408,8.072-7.824,8.168C216.832,136.832,212,159.232,212,176C212,180.424,208.416,184,204,184z"/>
	<path style="fill:#85D9E9;" d="M204,224c-4.416,0-8-3.576-8-8v-8c0-4.424,3.584-8,8-8s8,3.576,8,8v8
		C212,220.424,208.416,224,204,224z"/>
</g>
<g>
</g>
<g>
</g>
<g>
</g>
<g>
</g>
<g>
</g>
<g>
</g>
<g>
</g>
<g>
</g>
<g>
</g>
<g>
</g>
<g>
</g>
<g>
</g>
<g>
</g>
<g>
</g>
<g>
</g>
</svg>
