<?xml version="1.0" encoding="iso-8859-1"?>
<!-- Generator: Adobe Illustrator 19.0.0, SVG Export Plug-In . SVG Version: 6.00 Build 0)  -->
<svg width="51px" height="51px" version="1.1" id="Capa_1" xmlns="http://www.w3.org/2000/svg" xmlns:xlink="http://www.w3.org/1999/xlink" x="0px" y="0px"
	 viewBox="0 0 480 480" style="enable-background:new 0 0 480 480;" xml:space="preserve">
<path style="fill:#D6F2F8;" d="M464,0H16C7.16,0,0,7.16,0,16v272c0,4.416,3.584,8,8,8h464c4.416,0,8-3.584,8-8V16
	C480,7.16,472.84,0,464,0z"/>
<g>
	<path style="fill:#F5B9B0;" d="M166.4,283.2l-43.2-57.6l16.376-12.28c8.28-6.208,11.64-16.976,8.368-26.792l-4.352-13.064
		c-0.736-2.192-2.384-3.968-4.528-4.856c-2.136-0.888-4.568-0.808-6.64,0.232l-24.84,12.424L96,158.112V112
		c0-13.232-10.768-24-24-24h-8c-3.912,0-7.248,2.832-7.888,6.688l-16,96c-0.28,1.664-0.016,3.376,0.736,4.888l48,96
		C90.2,294.288,92.968,296,96,296h64c3.032,0,5.8-1.712,7.16-4.424S168.216,285.624,166.4,283.2z"/>
	<path style="fill:#F5B9B0;" d="M439.888,190.688l-16-96C423.248,90.832,419.912,88,416,88h-8c-13.232,0-24,10.768-24,24v46.112
		l-11.576,23.16l-24.84-12.424c-2.08-1.032-4.504-1.128-6.64-0.232c-2.144,0.888-3.792,2.664-4.528,4.856l-4.352,13.064
		c-3.272,9.816,0.088,20.576,8.368,26.792L356.8,225.6l-43.2,57.6c-1.824,2.424-2.112,5.664-0.76,8.376S316.968,296,320,296h64
		c3.032,0,5.8-1.712,7.16-4.424l48-96C439.912,194.064,440.168,192.352,439.888,190.688z"/>
</g>
<path style="fill:#85D9E9;" d="M0,280v64c0,8.84,7.16,16,16,16h158.416l-13.088,72H136c-13.232,0-24,10.768-24,24s10.768,24,24,24
	h208c13.232,0,24-10.768,24-24s-10.768-24-24-24h-25.328l-13.088-72H464c8.84,0,16-7.16,16-16v-64H0z"/>
<path style="fill:#D6F2F8;" d="M256,328h-32c-4.416,0-8-3.576-8-8s3.584-8,8-8h32c4.416,0,8,3.576,8,8S260.416,328,256,328z"/>
<path style="fill:#FAFAFA;" d="M310.096,36.176c-7.48-4.28-19.312-4.44-32.888-4.336l-4.08,0.04c-12.224,0-22.64,3.152-31.624,9.472
	c-0.504,0.328-1,0.672-1.488,1.032c-0.44-0.312-0.872-0.608-1.304-0.888c-1.752-1.232-3.552-2.304-5.296-3.24l-0.992-0.528
	c-0.392-0.2-0.784-0.4-1.176-0.584c-0.848-0.904-1.912-1.624-3.152-2.072c-2.216-0.792-5.216-1.448-7.512-1.928
	c-0.52-0.112-0.992-0.2-1.368-0.288c-1.28-0.552-2.8-0.776-4.24-0.608c-1.88-0.16-4.016-0.192-6.36-0.224
	c-0.416-0.072-0.824-0.104-1.176-0.104l-3.392-0.024c-3.024-0.048-6.384-0.08-13.024,0.144c-15.896,1.968-16.048,2.024-17.064,2.368
	c-1.584,0.544-3.032,1.168-3.856,1.672c-18.528,9.512-27.528,29.176-27.528,60.12c0,18.248,7.096,41.504,17.016,56.168
	c1.992,10.512,11.232,58.552,13.68,70.64c1.616,7.952,7.528,14.184,15.136,16.168c1.808,0.552,3.52,0.824,5.224,0.824
	c0.144,0,0.312,0,0.456,0h15.664c0.056,0,0.12,0,0.192,0c1.824,0,3.392-0.216,4.848-0.648c7.272-1.784,13.128-7.312,15.376-14.736
	L240,186.752l9.92,38.184c2.16,7.112,8.016,12.632,14.968,14.328c1.712,0.496,3.32,0.736,4.928,0.736c0.136,0,0.304,0,0.432,0
	h15.664c0.144,0,0.304,0,0.456,0c1.696,0,3.408-0.272,4.928-0.744c7.904-2.072,13.824-8.304,15.44-16.256
	c2.848-14.072,8.416-41.888,13.696-70.656c9.912-14.656,17-37.904,17-56.152C337.432,65.368,328.488,45.736,310.096,36.176z"/>
<g>
	<path style="fill:#85D9E9;" d="M224,96c-4.416,0-8-3.576-8-8c0-24.96,10.8-54.952,62.24-56.08c4.2-0.096,8.072,3.408,8.176,7.832
		c0.096,4.416-3.408,8.072-7.824,8.168C236.832,48.832,232,71.232,232,88C232,92.424,228.416,96,224,96z"/>
	<path style="fill:#85D9E9;" d="M224,136c-4.416,0-8-3.576-8-8v-8c0-4.424,3.584-8,8-8s8,3.576,8,8v8
		C232,132.424,228.416,136,224,136z"/>
</g>
<g>
	<path style="fill:#D6F2F8;" d="M312,448h-48c-4.416,0-8-3.576-8-8s3.584-8,8-8h48c4.416,0,8,3.576,8,8S316.416,448,312,448z"/>
	<path style="fill:#D6F2F8;" d="M240,408c-4.416,0-8-3.576-8-8v-8c0-4.424,3.584-8,8-8c4.416,0,8,3.576,8,8v8
		C248,404.424,244.416,408,240,408z"/>
	<path style="fill:#D6F2F8;" d="M216,448h-48c-4.416,0-8-3.576-8-8s3.584-8,8-8h48c4.416,0,8,3.576,8,8S220.416,448,216,448z"/>
</g>
<g>
</g>
<g>
</g>
<g>
</g>
<g>
</g>
<g>
</g>
<g>
</g>
<g>
</g>
<g>
</g>
<g>
</g>
<g>
</g>
<g>
</g>
<g>
</g>
<g>
</g>
<g>
</g>
<g>
</g>
</svg>
