<?xml version="1.0" encoding="iso-8859-1"?>
<!-- Generator: Adobe Illustrator 18.0.0, SVG Export Plug-In . SVG Version: 6.00 Build 0)  -->
<svg width="51px" height="51px" version="1.1" xmlns="http://www.w3.org/2000/svg" xmlns:xlink="http://www.w3.org/1999/xlink"
	 viewBox="0 0 54.594 54.594">
<g>
	<path style="fill:#ECE3D2;" d="M51.08,9.909c2.533,9.574-1.084,20.991-3.195,30.411c-0.918,4.094-1.685,8.286-3.791,11.976
		c-3.333,5.841-5.989-1.786-7.036-5.012c-1.287-3.965-1.706-9.087-5.667-11.446c-3.946-2.35-7.607,0.052-9.893,3.396
		c-2.316,3.388-3.194,7.325-4.663,11.093c-0.679,1.743-1.428,3.486-3.271,4.266c-1.956,0-3.314-3.573-4.032-5.308
		c-3.92-9.466-5.125-20.193-6.639-30.255c-1.065-7.079,1.23-15.493,8.584-18.099c3.996-1.416,9.469-0.11,13.47,1.069
		c2.299,0.678,1.875,0.457,4.165-0.338c0.176-0.061,0.349-0.143,0.529-0.218c4.901-2.027,10.809-2.043,15.122,0.731
		C47.674,4.048,50.238,6.726,51.08,9.909z"/>
</g>
</svg>
